<?xml version="1.0" encoding="utf-8"?>
<!-- Generator: Adobe Illustrator 22.0.1, SVG Export Plug-In . SVG Version: 6.00 Build 0)  -->
<svg version="1.1" id="Layer_1" xmlns="http://www.w3.org/2000/svg" xmlns:xlink="http://www.w3.org/1999/xlink" x="0px" y="0px"
	 viewBox="0 0 100 100" style="enable-background:new 0 0 100 100;" xml:space="preserve">
<style type="text/css">
	.st0{stroke:#231F20;stroke-width:3;stroke-linecap:round;stroke-linejoin:round;stroke-miterlimit:10;}
</style>
<g>
	<path d="M86,54.7002V24.4824c0.0142,0.3418,0.0938-0.7793-1.0835-1.3164C84.8892,23.1533,43.8569,4.4092,43.8569,4.4092
		c-0.375-0.1719-0.8027-0.1807-1.1831-0.0274L1.6914,20.8633C1,21.2969,1,22.2168,1,22.2373c0,0.0029,0,0.0059,0,0.0088
		c0,0.0029,0,0.0059,0,0.0088V78.207c0,0.6094,0.2441,1.1582,0.8081,1.3887l40.27,16.4844c1.1514,0.7539,2.3282,0.2842,2.5122,0.208
		l16.7535-6.919c3.9838,4.4239,9.7495,7.211,16.1572,7.211c11.9927,0,21.88909-9.7559,21.88909-21.7481
		C99.39009,65.7471,94,57.9492,86,54.7002z M24.9761,14.7324l35.937,16.8985l-17.312,6.5L6.1821,22.291L24.9761,14.7324z
		 M43.1958,7.4053l37.1138,16.9424L64.833,30.1582L28.7764,13.2041L43.1958,7.4053z M4,24.5322l38,16.3272v51.8642L4,77.1992
		V24.5322z M45,92.9805V40.9102l38-14.2618v27.0723c-2-0.4141-3.561-0.6377-5.3599-0.6377c-11.9912,0-21.8178,9.7568-21.8178,21.749
		c0,4.4668,1.4536,8.6231,3.7719,12.0811L45,92.9805z M77.499,93.5801c-10.3374,0-18.747-8.4102-18.747-18.7481
		s8.4096-18.749,18.747-18.749c10.33839,0,18.749,8.4111,18.749,18.749S87.83739,93.5801,77.499,93.5801z"/>
	<path d="M84.82909,68.2744l-9.6807,9.6817L70.835,73.6455c-0.585-0.584-1.5352-0.585-2.1211,0.001
		c-0.5855,0.5859-0.5855,1.5361,0.0009,2.1221l5.3741,5.3701c0.2924,0.292,0.6762,0.4384,1.06,0.4384s0.7681-0.1464,1.0606-0.4394
		l10.7407-10.7422c0.5859-0.5859,0.5859-1.5351,0-2.1211C86.3643,67.6885,85.41409,67.6885,84.82909,68.2744z"/>
</g>
</svg>
