<?xml version="1.0" encoding="utf-8"?>
<!-- Generator: Adobe Illustrator 24.0.0, SVG Export Plug-In . SVG Version: 6.00 Build 0)  -->
<svg version="1.1" id="Layer_1" xmlns="http://www.w3.org/2000/svg" xmlns:xlink="http://www.w3.org/1999/xlink" x="0px" y="0px"
	 viewBox="0 0 256 256" style="enable-background:new 0 0 256 256;" xml:space="preserve">
<style type="text/css">
	.st0{fill:#382B73;}
	.st1{fill:#291B4A;}
	.st2{fill:#ED9ABC;}
	.st3{fill:#E54890;}
	.st4{fill:#D3D3D3;}
	.st5{fill:#EBE7F2;}
	.st6{fill:#F9B087;}
	.st7{fill:#FF8639;}
	.st8{fill:#65C1D6;}
	.st9{fill:#149CB2;}
</style>
<g>
	<g>
		<g>
			<ellipse transform="matrix(0.7071 -0.7071 0.7071 0.7071 -53.0193 128)" class="st0" cx="128" cy="128" rx="119.4" ry="119.4"/>
		</g>
	</g>
	<g>
		<g>
			<path class="st1" d="M186.215,109.585c0-32.1-26.115-58.215-58.215-58.215c-32.1,0-58.215,26.115-58.215,58.215
				S95.9,167.801,128,167.801C160.1,167.801,186.215,141.686,186.215,109.585z M74.785,109.585
				c0-29.343,23.872-53.215,53.215-53.215c29.343,0,53.215,23.872,53.215,53.215S157.343,162.801,128,162.801
				C98.657,162.801,74.785,138.929,74.785,109.585z"/>
		</g>
		<g>
			<path class="st1" d="M85.526,160.784c-1.246-0.59-2.738-0.06-3.331,1.187l-15.167,31.97c-0.414,0.874-0.288,1.908,0.325,2.656
				c0.612,0.748,1.602,1.076,2.539,0.842l20.146-5.023l8.852,18.781c0.413,0.875,1.283,1.394,2.261,1.434
				c0.965,0,1.845-0.556,2.259-1.428l15.724-33.142c0.592-1.248,0.06-2.739-1.187-3.331c-1.248-0.592-2.739-0.06-3.331,1.187
				l-13.458,28.366l-7.473-15.855c-0.509-1.079-1.71-1.648-2.866-1.36l-17.007,4.241l12.901-27.193
				C87.305,162.867,86.773,161.376,85.526,160.784z"/>
		</g>
		<g>
			<path class="st1" d="M162.314,188.427l-7.473,15.855l-13.491-28.438c-0.592-1.247-2.082-1.779-3.33-1.187
				s-1.779,2.083-1.188,3.331l15.757,33.214c0.414,0.872,1.293,1.428,2.259,1.428h0.003c0.967-0.001,1.847-0.56,2.259-1.434
				l8.853-18.781l20.146,5.023c0.937,0.234,1.927-0.094,2.539-0.842s0.738-1.782,0.324-2.656L173.771,161.9
				c-0.592-1.247-2.083-1.779-3.33-1.187c-1.248,0.592-1.779,2.083-1.188,3.331l12.936,27.264l-17.008-4.241
				C164.029,186.777,162.823,187.346,162.314,188.427z"/>
		</g>
		<g>
			<path class="st1" d="M160.521,105.184c2.201-1.6,3.08-4.305,2.239-6.893s-3.143-4.26-5.863-4.26h-16.75
				c-0.506,0-0.951-0.323-1.107-0.805l-5.177-15.931c-0.841-2.587-3.143-4.26-5.863-4.26c0,0,0,0,0,0
				c-2.721,0-5.022,1.672-5.863,4.26l-5.176,15.931c-0.157,0.481-0.602,0.805-1.108,0.805h-16.75c-2.721,0-5.023,1.672-5.864,4.26
				s0.039,5.293,2.24,6.893l13.55,9.845c0.41,0.298,0.58,0.822,0.424,1.303l-5.176,15.931c-0.841,2.588,0.038,5.293,2.239,6.893
				c1.101,0.8,2.362,1.2,3.624,1.2c1.261,0,2.523-0.4,3.623-1.2l13.551-9.845c0.41-0.298,0.96-0.297,1.37,0l13.551,9.846
				c2.203,1.6,5.047,1.6,7.248,0c2.201-1.599,3.08-4.305,2.24-6.893l-5.177-15.93c-0.156-0.482,0.014-1.005,0.424-1.303
				L160.521,105.184z M141.791,117.876l5.177,15.931c0.228,0.7-0.167,1.117-0.423,1.303c-0.256,0.185-0.774,0.433-1.37,0
				l-13.552-9.846c-1.083-0.787-2.353-1.18-3.623-1.18c-1.27,0-2.54,0.394-3.624,1.181l-13.552,9.846
				c-0.596,0.433-1.113,0.185-1.369,0c-0.256-0.186-0.651-0.602-0.423-1.303l5.176-15.93c0.828-2.547-0.071-5.317-2.239-6.893
				l-13.551-9.845c-0.596-0.433-0.521-1.002-0.423-1.303s0.372-0.805,1.108-0.805h16.75c2.679,0,5.036-1.712,5.863-4.26
				l5.176-15.931c0.228-0.7,0.792-0.805,1.108-0.805c0.316,0,0.88,0.104,1.107,0.805l5.177,15.93c0.827,2.548,3.184,4.26,5.863,4.26
				h16.75c0.736,0,1.011,0.504,1.108,0.805c0.098,0.301,0.172,0.87-0.424,1.303l-13.551,9.845
				C141.864,112.558,140.964,115.328,141.791,117.876z"/>
		</g>
		<g>
			<path class="st1" d="M25.815,118.358c-3.088,4.185-6.281,8.512-6.281,13.642s3.193,9.457,6.281,13.642
				c2.211,2.998,4.3,5.829,4.921,8.562c0.659,2.897-0.007,6.453-0.712,10.218c-0.94,5.019-1.912,10.208,0.232,14.654
				c2.186,4.532,6.901,7.022,11.461,9.431c3.341,1.765,6.498,3.432,8.295,5.684c1.815,2.273,2.747,5.736,3.734,9.403
				c1.335,4.961,2.716,10.092,6.621,13.21c3.884,3.101,9.178,3.312,14.298,3.515c3.808,0.151,7.405,0.294,10.049,1.57
				c2.563,1.236,4.875,3.923,7.322,6.768c3.379,3.927,6.874,7.988,11.827,9.114c4.756,1.079,9.567-1.009,14.219-3.03
				c3.389-1.473,6.894-2.996,9.917-2.996c3.023,0,6.528,1.523,9.918,2.996c3.774,1.64,7.652,3.325,11.521,3.325
				c0.9,0,1.8-0.091,2.696-0.295c4.953-1.126,8.447-5.187,11.826-9.113c2.447-2.845,4.76-5.531,7.322-6.768
				c2.644-1.275,6.24-1.418,10.049-1.569c5.12-0.204,10.415-0.414,14.298-3.515c3.905-3.118,5.286-8.249,6.621-13.21
				c0.987-3.667,1.919-7.13,3.734-9.403c1.799-2.251,4.954-3.919,8.296-5.684c4.56-2.409,9.274-4.899,11.462-9.431
				c2.145-4.445,1.172-9.635,0.232-14.654c-0.705-3.765-1.371-7.321-0.713-10.219c0.621-2.733,2.71-5.564,4.922-8.562
				c3.088-4.185,6.28-8.511,6.28-13.641s-3.192-9.457-6.28-13.641c-2.212-2.998-4.301-5.829-4.922-8.562
				c-0.658-2.897,0.008-6.453,0.713-10.218c0.939-5.019,1.912-10.208-0.232-14.654c-2.187-4.531-6.901-7.022-11.461-9.431
				c-3.342-1.765-6.498-3.432-8.296-5.684c-1.815-2.273-2.747-5.737-3.734-9.404c-1.335-4.961-2.716-10.092-6.621-13.21
				c-3.883-3.101-9.178-3.312-14.298-3.515c-3.808-0.151-7.405-0.294-10.049-1.57c-2.563-1.237-4.875-3.923-7.322-6.768
				c-3.38-3.927-6.874-7.987-11.826-9.113c-4.76-1.08-9.567,1.009-14.219,3.03c-3.39,1.473-6.895,2.996-9.918,2.996
				c-3.024,0-6.528-1.523-9.917-2.996c-4.652-2.021-9.464-4.11-14.219-3.03c-4.952,1.126-8.446,5.187-11.826,9.113
				c-2.448,2.845-4.759,5.532-7.322,6.768c-2.643,1.275-6.24,1.418-10.048,1.569c-5.12,0.204-10.415,0.414-14.299,3.515
				c-3.905,3.118-5.286,8.249-6.621,13.21c-0.987,3.667-1.919,7.13-3.734,9.403c-1.798,2.251-4.954,3.918-8.295,5.684
				c-4.56,2.409-9.275,4.899-11.461,9.431c-2.145,4.445-1.173,9.635-0.233,14.654c0.705,3.765,1.371,7.321,0.712,10.218
				C30.115,112.53,28.026,115.361,25.815,118.358z M35.612,110.905c0.888-3.908,0.094-8.147-0.674-12.247
				c-0.828-4.42-1.609-8.595-0.179-11.561c1.472-3.051,5.271-5.058,9.294-7.183c3.647-1.926,7.418-3.918,9.867-6.984
				c2.465-3.087,3.579-7.224,4.655-11.224c1.178-4.375,2.29-8.508,4.913-10.603c2.602-2.078,6.865-2.247,11.377-2.426
				c4.151-0.165,8.443-0.335,12.022-2.063c3.5-1.689,6.266-4.902,8.939-8.009c2.982-3.465,5.798-6.739,9.144-7.499
				c3.16-0.719,7.025,0.961,11.118,2.74c3.858,1.676,7.847,3.41,11.91,3.41c4.063,0,8.053-1.733,11.91-3.41
				c4.093-1.778,7.953-3.46,11.118-2.74c3.346,0.76,6.162,4.034,9.145,7.499c2.674,3.107,5.439,6.321,8.94,8.009
				c3.579,1.727,7.871,1.898,12.022,2.063c4.513,0.179,8.775,0.349,11.377,2.426c2.623,2.094,3.734,6.227,4.912,10.603
				c1.077,4,2.19,8.137,4.655,11.224c2.448,3.066,6.22,5.059,9.867,6.985c4.022,2.125,7.821,4.131,9.293,7.182
				c1.432,2.966,0.649,7.141-0.179,11.561c-0.768,4.1-1.562,8.339-0.673,12.246c0.853,3.753,3.354,7.144,5.773,10.423
				c2.728,3.696,5.304,7.188,5.304,10.672s-2.576,6.976-5.304,10.672c-2.419,3.279-4.921,6.67-5.773,10.422
				c-0.889,3.908-0.095,8.147,0.673,12.247c0.828,4.42,1.61,8.595,0.179,11.561c-1.472,3.051-5.271,5.058-9.294,7.183
				c-3.646,1.926-7.418,3.918-9.866,6.984c-2.466,3.087-3.579,7.224-4.656,11.224c-1.178,4.375-2.289,8.508-4.912,10.602
				c-2.603,2.078-6.864,2.247-11.378,2.426c-4.15,0.165-8.442,0.335-12.021,2.063c-3.501,1.689-6.267,4.902-8.94,8.01
				c-2.981,3.465-5.798,6.738-9.144,7.499c-3.166,0.718-7.025-0.962-11.118-2.74c-3.857-1.676-7.847-3.41-11.91-3.41
				c-4.063,0-8.052,1.733-11.91,3.41c-4.093,1.778-7.959,3.46-11.118,2.74c-3.346-0.76-6.163-4.034-9.145-7.499
				c-2.674-3.107-5.439-6.321-8.939-8.009c-3.58-1.727-7.872-1.898-12.023-2.063c-4.513-0.179-8.775-0.349-11.377-2.426
				c-2.623-2.095-3.735-6.228-4.913-10.603c-1.076-4-2.189-8.136-4.655-11.224c-2.448-3.066-6.22-5.058-9.867-6.984
				c-4.022-2.125-7.821-4.131-9.293-7.183c-1.431-2.966-0.649-7.141,0.179-11.561c0.768-4.1,1.562-8.339,0.674-12.247
				c-0.853-3.752-3.355-7.143-5.774-10.422c-2.728-3.696-5.304-7.188-5.304-10.673s2.576-6.977,5.304-10.673
				C32.257,118.048,34.759,114.658,35.612,110.905z"/>
		</g>
	</g>
	<g>
		<g>
			<path class="st4" d="M186.215,105.585c0-32.1-26.115-58.215-58.215-58.215c-32.1,0-58.215,26.115-58.215,58.215
				S95.9,163.801,128,163.801C160.1,163.801,186.215,137.686,186.215,105.585z M74.785,105.585
				c0-29.343,23.872-53.215,53.215-53.215c29.343,0,53.215,23.872,53.215,53.215S157.343,158.801,128,158.801
				C98.657,158.801,74.785,134.929,74.785,105.585z"/>
		</g>
		<g>
			<g>
				<path class="st5" d="M182.715,105.585c0-30.17-24.545-54.715-54.715-54.715c-30.17,0-54.715,24.545-54.715,54.715
					S97.83,160.301,128,160.301C158.17,160.301,182.715,135.756,182.715,105.585z M74.785,105.585
					c0-29.343,23.872-53.215,53.215-53.215c29.343,0,53.215,23.872,53.215,53.215S157.343,158.801,128,158.801
					C98.657,158.801,74.785,134.929,74.785,105.585z"/>
				<path class="st5" d="M186.215,105.585c0-32.1-26.115-58.215-58.215-58.215c-32.1,0-58.215,26.115-58.215,58.215
					S95.9,163.801,128,163.801C160.1,163.801,186.215,137.686,186.215,105.585z M71.285,105.585
					c0-31.273,25.442-56.715,56.715-56.715c31.273,0,56.715,25.442,56.715,56.715S159.273,162.301,128,162.301
					C96.727,162.301,71.285,136.858,71.285,105.585z"/>
			</g>
		</g>
		<g>
			<path class="st6" d="M85.526,156.784c-1.246-0.59-2.738-0.061-3.331,1.187l-15.167,31.97c-0.414,0.874-0.288,1.908,0.325,2.656
				c0.612,0.749,1.602,1.077,2.539,0.842l20.146-5.023l8.852,18.781c0.412,0.875,1.292,1.433,2.258,1.434c0.001,0,0.002,0,0.003,0
				c0.965,0,1.845-0.556,2.259-1.428l15.724-33.142c0.592-1.248,0.06-2.739-1.187-3.331c-1.248-0.591-2.739-0.06-3.331,1.187
				l-13.458,28.366l-7.473-15.855c-0.509-1.079-1.71-1.648-2.866-1.36l-17.007,4.241l12.901-27.193
				C87.305,158.867,86.773,157.376,85.526,156.784z"/>
		</g>
		<g>
			<path class="st6" d="M162.314,184.427l-7.473,15.855l-13.491-28.438c-0.592-1.247-2.082-1.779-3.33-1.187
				s-1.779,2.083-1.188,3.331l15.757,33.214c0.414,0.872,1.293,1.428,2.259,1.428c0.001,0,0.002,0,0.003,0
				c0.967-0.001,1.847-0.56,2.259-1.434l8.853-18.781l20.146,5.023c0.937,0.235,1.927-0.093,2.539-0.842
				c0.612-0.748,0.738-1.782,0.324-2.656L173.771,157.9c-0.592-1.247-2.083-1.779-3.33-1.187c-1.248,0.592-1.779,2.083-1.188,3.331
				l12.936,27.264l-17.008-4.241C164.029,182.779,162.823,183.347,162.314,184.427z"/>
		</g>
		<g>
			<path class="st6" d="M160.521,101.184c2.201-1.6,3.08-4.305,2.239-6.893s-3.143-4.26-5.863-4.26h-16.75
				c-0.506,0-0.951-0.323-1.107-0.805l-5.177-15.931c-0.841-2.587-3.143-4.26-5.863-4.26c0,0,0,0,0,0
				c-2.721,0-5.022,1.672-5.863,4.26l-5.176,15.931c-0.157,0.481-0.602,0.805-1.108,0.805h-16.75c-2.721,0-5.023,1.672-5.864,4.26
				s0.039,5.293,2.24,6.893l13.55,9.845c0.41,0.298,0.58,0.822,0.424,1.303l-5.176,15.931c-0.841,2.588,0.038,5.293,2.239,6.893
				c1.101,0.8,2.362,1.2,3.624,1.2c1.261,0,2.523-0.4,3.623-1.2l13.551-9.845c0.41-0.298,0.96-0.297,1.37,0l13.551,9.846
				c2.203,1.6,5.047,1.6,7.248,0c2.201-1.599,3.08-4.305,2.24-6.893l-5.177-15.93c-0.156-0.482,0.014-1.005,0.424-1.303
				L160.521,101.184z M141.791,113.876l5.177,15.931c0.228,0.7-0.167,1.117-0.423,1.303c-0.256,0.185-0.774,0.433-1.37,0
				l-13.552-9.846c-1.083-0.787-2.353-1.18-3.623-1.18c-1.27,0-2.54,0.394-3.624,1.181l-13.552,9.846
				c-0.596,0.433-1.113,0.185-1.369,0c-0.256-0.186-0.651-0.602-0.423-1.303l5.176-15.93c0.828-2.547-0.071-5.317-2.239-6.893
				l-13.551-9.845c-0.596-0.433-0.521-1.002-0.423-1.303s0.372-0.805,1.108-0.805h16.75c2.679,0,5.036-1.712,5.863-4.26
				l5.176-15.931c0.228-0.7,0.792-0.805,1.108-0.805c0.316,0,0.88,0.104,1.107,0.805l5.177,15.93c0.827,2.548,3.184,4.26,5.863,4.26
				h16.75c0.736,0,1.011,0.504,1.108,0.805c0.098,0.301,0.172,0.87-0.424,1.303l-13.551,9.845
				C141.864,108.558,140.964,111.328,141.791,113.876z"/>
		</g>
		<g>
			<g>
				<path class="st7" d="M85.526,156.784c-0.346-0.164-0.71-0.241-1.069-0.241c-0.935,0-1.834,0.526-2.262,1.428l-15.167,31.97
					c-0.414,0.874-0.288,1.908,0.325,2.656c0.481,0.588,1.195,0.917,1.933,0.917c0.201,0,0.405-0.025,0.606-0.075l20.146-5.023
					l8.852,18.781c0.412,0.875,1.292,1.433,2.258,1.434c0.001,0,0.002,0,0.003,0c0.965,0,1.845-0.556,2.259-1.428l15.724-33.142
					c0.592-1.248,0.06-2.739-1.187-3.331c-0.346-0.164-0.711-0.242-1.07-0.242c-0.936,0-1.833,0.527-2.261,1.429l-13.458,28.366
					l-7.473-15.855c-0.42-0.891-1.313-1.434-2.262-1.434c-0.2,0-0.403,0.024-0.604,0.074l-17.007,4.241l12.901-27.193
					C87.305,158.867,86.773,157.376,85.526,156.784z M85.358,159.472l-12.901,27.193c-0.249,0.524-0.173,1.144,0.195,1.593
					c0.289,0.353,0.717,0.55,1.161,0.55c0.121,0,0.243-0.015,0.363-0.045l17.007-4.241c0.079-0.02,0.161-0.03,0.242-0.03
					c0.385,0,0.741,0.225,0.905,0.574l7.473,15.855c0.247,0.525,0.775,0.86,1.355,0.86c0.001,0,0.001,0,0.002,0
					c0.579,0,1.107-0.334,1.355-0.857l13.458-28.366c0.165-0.347,0.52-0.571,0.905-0.571c0.148,0,0.292,0.033,0.427,0.097
					c0.498,0.236,0.711,0.834,0.475,1.333l-15.723,33.142c-0.165,0.347-0.52,0.572-0.905,0.572c-0.385,0-0.739-0.225-0.903-0.574
					l-8.852-18.781c-0.252-0.535-0.787-0.861-1.356-0.861c-0.12,0-0.242,0.015-0.363,0.045l-20.147,5.024
					c-0.079,0.02-0.16,0.03-0.241,0.03c-0.3,0-0.582-0.134-0.773-0.367c-0.244-0.297-0.295-0.715-0.13-1.062l15.167-31.969
					c0.165-0.347,0.521-0.571,0.907-0.571c0.148,0,0.291,0.033,0.426,0.096C85.381,158.376,85.594,158.974,85.358,159.472z"/>
			</g>
		</g>
		<g>
			<g>
				<path class="st7" d="M164.577,182.992c-0.947,0-1.843,0.543-2.263,1.434l-7.473,15.855l-13.491-28.438
					c-0.428-0.901-1.325-1.429-2.26-1.429c-0.359,0-0.724,0.078-1.07,0.242c-1.248,0.592-1.779,2.083-1.188,3.331l15.757,33.214
					c0.414,0.872,1.293,1.428,2.259,1.428c0.001,0,0.002,0,0.003,0c0.967-0.001,1.847-0.56,2.259-1.434l8.853-18.781l20.146,5.023
					c0.201,0.05,0.404,0.075,0.606,0.075c0.738,0,1.453-0.329,1.934-0.917c0.612-0.748,0.738-1.782,0.324-2.656L173.771,157.9
					c-0.428-0.901-1.325-1.429-2.261-1.429c-0.359,0-0.724,0.078-1.069,0.242c-1.248,0.592-1.779,2.083-1.188,3.331l12.936,27.264
					l-17.008-4.241C164.98,183.017,164.777,182.992,164.577,182.992z M182.188,188.808c0.443,0,0.872-0.197,1.161-0.55
					c0.367-0.449,0.443-1.069,0.195-1.593l-12.936-27.264c-0.115-0.241-0.128-0.513-0.039-0.765c0.09-0.252,0.272-0.453,0.514-0.568
					c0.135-0.064,0.279-0.097,0.426-0.097c0.385,0,0.741,0.224,0.906,0.572l15.201,32.041c0.165,0.348,0.114,0.766-0.13,1.064
					c-0.19,0.233-0.472,0.366-0.773,0.366c-0.081,0-0.162-0.01-0.243-0.03l-20.146-5.023c-0.121-0.03-0.243-0.045-0.363-0.045
					c-0.57,0-1.104,0.326-1.356,0.861l-8.853,18.781c-0.164,0.348-0.519,0.573-0.905,0.573c-0.384,0-0.739-0.224-0.904-0.571
					l-15.757-33.214c-0.115-0.241-0.128-0.513-0.039-0.765c0.09-0.252,0.272-0.453,0.513-0.568c0.136-0.064,0.28-0.097,0.427-0.097
					c0.385,0,0.74,0.225,0.905,0.572l13.491,28.438c0.248,0.523,0.776,0.857,1.355,0.857c0.001,0,0.001,0,0.002,0
					c0.58-0.001,1.108-0.336,1.355-0.86l7.473-15.855c0.164-0.348,0.52-0.573,0.906-0.573c0.08,0,0.161,0.01,0.24,0.03l17.008,4.241
					C181.946,188.793,182.068,188.808,182.188,188.808z"/>
			</g>
		</g>
		<g>
			<g>
				<path class="st7" d="M144.913,108.197l13.551-9.845c0.966-0.702,1.337-1.844,0.968-2.98c-0.369-1.135-1.341-1.841-2.535-1.841
					h-16.75c-2.028,0-3.811-1.295-4.437-3.224l-5.176-15.929c-0.368-1.136-1.34-1.842-2.534-1.842c-1.195,0-2.166,0.705-2.535,1.841
					l-5.176,15.931c-0.626,1.928-2.409,3.223-4.437,3.223h-16.75c-1.195,0-2.166,0.706-2.535,1.842
					c-0.369,1.135,0.002,2.277,0.968,2.979l13.551,9.845c1.64,1.192,2.321,3.288,1.695,5.216l-5.176,15.93
					c-0.369,1.135,0.002,2.277,0.972,2.983c0.475,0.343,1.017,0.524,1.567,0.524c0.547,0,1.087-0.182,1.561-0.527l13.552-9.846
					c0.805-0.585,1.753-0.894,2.742-0.894c0.989,0,1.937,0.309,2.741,0.894l13.552,9.846c0.474,0.344,1.014,0.526,1.562,0.526
					c0.551,0,1.093-0.181,1.572-0.527c0.966-0.702,1.336-1.844,0.967-2.98l-5.177-15.93
					C142.592,111.485,143.273,109.389,144.913,108.197z M141.791,113.876l5.177,15.931c0.228,0.7-0.167,1.117-0.423,1.303
					c-0.151,0.109-0.394,0.24-0.69,0.24c-0.205,0-0.436-0.063-0.68-0.24l-13.552-9.846c-1.083-0.787-2.353-1.18-3.623-1.18
					c-1.27,0-2.54,0.394-3.624,1.181l-13.552,9.846c-0.244,0.177-0.475,0.24-0.68,0.24c-0.296,0-0.538-0.131-0.689-0.24
					c-0.256-0.186-0.651-0.602-0.423-1.303l5.176-15.93c0.828-2.547-0.071-5.317-2.239-6.893l-13.551-9.845
					c-0.596-0.433-0.521-1.002-0.423-1.303s0.372-0.805,1.108-0.805h16.75c2.679,0,5.036-1.712,5.863-4.26l5.176-15.931
					c0.228-0.7,0.792-0.805,1.108-0.805c0.316,0,0.88,0.104,1.107,0.805l5.177,15.93c0.827,2.548,3.184,4.26,5.863,4.26h16.75
					c0.736,0,1.011,0.504,1.108,0.805c0.098,0.301,0.172,0.87-0.424,1.303l-13.551,9.845
					C141.864,108.558,140.964,111.328,141.791,113.876z"/>
				<path class="st7" d="M160.521,101.184c2.201-1.6,3.08-4.305,2.239-6.893s-3.143-4.26-5.863-4.26h-16.75
					c-0.506,0-0.951-0.323-1.107-0.805l-5.177-15.931c-0.841-2.587-3.143-4.26-5.863-4.26c0,0,0,0,0,0
					c-2.721,0-5.022,1.672-5.863,4.26l-5.176,15.931c-0.157,0.481-0.602,0.805-1.108,0.805h-16.75c-2.721,0-5.023,1.672-5.864,4.26
					s0.039,5.293,2.24,6.893l13.55,9.845c0.41,0.298,0.58,0.822,0.424,1.303l-5.176,15.931c-0.841,2.588,0.038,5.293,2.239,6.893
					c1.101,0.8,2.362,1.2,3.624,1.2c1.261,0,2.523-0.4,3.623-1.2l13.551-9.845c0.205-0.149,0.445-0.223,0.685-0.223
					s0.48,0.074,0.684,0.223l13.551,9.846c1.102,0.8,2.363,1.2,3.625,1.2s2.523-0.4,3.623-1.2c2.201-1.599,3.08-4.305,2.24-6.893
					l-5.177-15.93c-0.156-0.482,0.014-1.005,0.424-1.303L160.521,101.184z M145.12,112.796l5.177,15.93
					c0.636,1.959-0.03,4.006-1.695,5.216c-0.822,0.597-1.77,0.913-2.741,0.913c-0.972,0-1.92-0.316-2.743-0.913l-13.552-9.846
					c-0.459-0.333-1-0.509-1.565-0.509c-0.566,0-1.108,0.176-1.567,0.51l-13.552,9.845c-0.821,0.597-1.769,0.913-2.741,0.913
					c-0.972,0-1.92-0.316-2.742-0.913c-1.666-1.21-2.331-3.257-1.694-5.215l5.176-15.931c0.358-1.102-0.032-2.299-0.969-2.98
					l-13.55-9.845c-1.666-1.21-2.331-3.257-1.695-5.215c0.636-1.958,2.378-3.224,4.437-3.224h16.75c1.158,0,2.176-0.74,2.535-1.841
					l5.176-15.931c0.636-1.958,2.378-3.223,4.437-3.223c2.059,0,3.8,1.265,4.436,3.223l5.177,15.93
					c0.357,1.102,1.376,1.842,2.534,1.842h16.75c2.059,0,3.801,1.265,4.437,3.223c0.636,1.958-0.029,4.006-1.694,5.216
					l-13.551,9.845C145.152,110.495,144.763,111.693,145.12,112.796z"/>
			</g>
		</g>
		<g>
			<path class="st8" d="M25.815,114.358c-3.088,4.185-6.281,8.512-6.281,13.642s3.193,9.457,6.281,13.642
				c2.211,2.998,4.3,5.829,4.921,8.562c0.659,2.897-0.007,6.453-0.712,10.218c-0.94,5.019-1.912,10.208,0.232,14.654
				c2.186,4.532,6.901,7.022,11.461,9.431c3.341,1.765,6.498,3.432,8.295,5.684c1.815,2.273,2.747,5.736,3.734,9.403
				c1.335,4.961,2.716,10.092,6.621,13.21c3.884,3.101,9.178,3.312,14.298,3.515c3.808,0.151,7.405,0.294,10.049,1.57
				c2.563,1.236,4.875,3.923,7.322,6.768c3.379,3.927,6.874,7.988,11.827,9.114c4.756,1.078,9.567-1.01,14.219-3.03
				c3.389-1.473,6.894-2.996,9.917-2.996c3.023,0,6.528,1.523,9.918,2.996c3.774,1.64,7.652,3.325,11.521,3.325
				c0.9,0,1.8-0.091,2.696-0.295c4.953-1.126,8.447-5.187,11.826-9.113c2.447-2.845,4.76-5.531,7.322-6.768
				c2.644-1.275,6.24-1.418,10.049-1.569c5.12-0.204,10.415-0.414,14.298-3.515c3.905-3.118,5.286-8.249,6.621-13.21
				c0.987-3.667,1.919-7.13,3.734-9.403c1.799-2.251,4.954-3.919,8.296-5.684c4.56-2.409,9.274-4.899,11.462-9.431
				c2.145-4.445,1.172-9.635,0.232-14.654c-0.705-3.765-1.371-7.321-0.713-10.219c0.621-2.733,2.71-5.564,4.922-8.562
				c3.088-4.185,6.28-8.511,6.28-13.641s-3.192-9.457-6.28-13.641c-2.212-2.998-4.301-5.829-4.922-8.562
				c-0.658-2.897,0.008-6.453,0.713-10.218c0.939-5.019,1.912-10.208-0.232-14.654c-2.187-4.531-6.901-7.022-11.461-9.431
				c-3.342-1.765-6.498-3.432-8.296-5.684c-1.815-2.273-2.747-5.737-3.734-9.404c-1.335-4.961-2.716-10.092-6.621-13.21
				c-3.883-3.101-9.178-3.312-14.298-3.515c-3.808-0.151-7.405-0.294-10.049-1.57c-2.563-1.237-4.875-3.923-7.322-6.768
				c-3.38-3.927-6.874-7.987-11.826-9.113c-4.76-1.078-9.567,1.01-14.219,3.03c-3.39,1.473-6.895,2.996-9.918,2.996
				c-3.024,0-6.528-1.523-9.917-2.996c-4.652-2.022-9.464-4.11-14.219-3.03c-4.952,1.126-8.446,5.187-11.826,9.113
				c-2.448,2.845-4.759,5.532-7.322,6.768c-2.643,1.275-6.24,1.418-10.048,1.569c-5.12,0.204-10.415,0.414-14.299,3.515
				c-3.905,3.118-5.286,8.249-6.621,13.21c-0.987,3.667-1.919,7.13-3.734,9.403c-1.798,2.251-4.954,3.918-8.295,5.684
				c-4.56,2.409-9.275,4.899-11.461,9.431c-2.145,4.445-1.173,9.635-0.233,14.654c0.705,3.765,1.371,7.321,0.712,10.218
				C30.115,108.53,28.026,111.361,25.815,114.358z M35.612,106.905c0.888-3.908,0.094-8.147-0.674-12.247
				c-0.828-4.42-1.609-8.595-0.179-11.561c1.472-3.051,5.271-5.058,9.294-7.183c3.647-1.926,7.418-3.918,9.867-6.984
				c2.465-3.087,3.579-7.224,4.655-11.224c1.178-4.375,2.29-8.508,4.913-10.603c2.602-2.078,6.865-2.247,11.377-2.426
				c4.151-0.165,8.443-0.335,12.022-2.063c3.5-1.689,6.266-4.902,8.939-8.009c2.982-3.465,5.798-6.739,9.144-7.499
				c3.16-0.717,7.025,0.962,11.118,2.74c3.858,1.676,7.847,3.41,11.91,3.41c4.063,0,8.053-1.733,11.91-3.41
				c4.093-1.779,7.953-3.458,11.118-2.74c3.346,0.76,6.162,4.034,9.145,7.499c2.674,3.107,5.439,6.321,8.94,8.009
				c3.579,1.727,7.871,1.898,12.022,2.063c4.513,0.179,8.775,0.349,11.377,2.426c2.623,2.094,3.734,6.227,4.912,10.603
				c1.077,4,2.19,8.137,4.655,11.224c2.448,3.066,6.22,5.059,9.867,6.985c4.022,2.125,7.821,4.131,9.293,7.182
				c1.432,2.966,0.649,7.141-0.179,11.561c-0.768,4.1-1.562,8.339-0.673,12.246c0.853,3.753,3.354,7.144,5.773,10.423
				c2.728,3.696,5.304,7.188,5.304,10.672s-2.576,6.976-5.304,10.672c-2.419,3.279-4.921,6.67-5.773,10.422
				c-0.889,3.908-0.095,8.147,0.673,12.247c0.828,4.42,1.61,8.595,0.179,11.561c-1.472,3.051-5.271,5.058-9.294,7.183
				c-3.646,1.926-7.418,3.918-9.866,6.984c-2.466,3.087-3.579,7.224-4.656,11.224c-1.178,4.375-2.289,8.508-4.912,10.602
				c-2.603,2.078-6.864,2.247-11.378,2.426c-4.15,0.165-8.442,0.335-12.021,2.063c-3.501,1.689-6.267,4.902-8.94,8.01
				c-2.981,3.465-5.798,6.738-9.144,7.499c-3.166,0.718-7.025-0.961-11.118-2.74c-3.857-1.676-7.847-3.41-11.91-3.41
				c-4.063,0-8.052,1.733-11.91,3.41c-4.093,1.778-7.959,3.459-11.118,2.74c-3.346-0.76-6.163-4.034-9.145-7.499
				c-2.674-3.107-5.439-6.321-8.939-8.009c-3.58-1.727-7.872-1.898-12.023-2.063c-4.513-0.179-8.775-0.349-11.377-2.426
				c-2.623-2.095-3.735-6.228-4.913-10.603c-1.076-4-2.189-8.136-4.655-11.224c-2.448-3.066-6.22-5.058-9.867-6.984
				c-4.022-2.125-7.821-4.131-9.293-7.183c-1.431-2.966-0.649-7.141,0.179-11.561c0.768-4.1,1.562-8.339,0.674-12.247
				c-0.853-3.752-3.355-7.143-5.774-10.422c-2.728-3.696-5.304-7.188-5.304-10.673s2.576-6.977,5.304-10.673
				C32.257,114.048,34.759,110.658,35.612,106.905z"/>
		</g>
		<g>
			<g>
				<path class="st9" d="M25.815,114.358c-3.088,4.185-6.281,8.512-6.281,13.642s3.193,9.457,6.281,13.642
					c2.211,2.998,4.3,5.829,4.921,8.562c0.659,2.897-0.007,6.453-0.712,10.218c-0.94,5.019-1.912,10.208,0.232,14.654
					c2.186,4.532,6.901,7.022,11.461,9.431c3.341,1.765,6.498,3.432,8.295,5.684c1.815,2.273,2.747,5.736,3.734,9.403
					c1.335,4.961,2.716,10.092,6.621,13.21c3.884,3.101,9.178,3.312,14.298,3.515c3.808,0.151,7.405,0.294,10.049,1.57
					c2.563,1.236,4.875,3.923,7.322,6.768c3.379,3.927,6.874,7.988,11.827,9.114c0.896,0.203,1.793,0.294,2.692,0.294
					c3.87,0,7.752-1.684,11.527-3.324c3.389-1.473,6.894-2.996,9.917-2.996c3.023,0,6.528,1.523,9.918,2.996
					c3.774,1.64,7.652,3.325,11.521,3.325c0.9,0,1.8-0.091,2.696-0.295c4.953-1.126,8.447-5.187,11.826-9.113
					c2.447-2.845,4.76-5.531,7.322-6.768c2.644-1.275,6.24-1.418,10.049-1.569c5.12-0.204,10.415-0.414,14.298-3.515
					c3.905-3.118,5.286-8.249,6.621-13.21c0.987-3.667,1.919-7.13,3.734-9.403c1.799-2.251,4.954-3.919,8.296-5.684
					c4.56-2.409,9.274-4.899,11.462-9.431c2.145-4.445,1.172-9.635,0.232-14.654c-0.705-3.765-1.371-7.321-0.713-10.219
					c0.621-2.733,2.71-5.564,4.922-8.562c3.088-4.185,6.28-8.511,6.28-13.641s-3.192-9.457-6.28-13.641
					c-2.212-2.998-4.301-5.829-4.922-8.562c-0.658-2.897,0.008-6.453,0.713-10.218c0.939-5.019,1.912-10.208-0.232-14.654
					c-2.187-4.531-6.901-7.022-11.461-9.431c-3.342-1.765-6.498-3.432-8.296-5.684c-1.815-2.273-2.747-5.737-3.734-9.404
					c-1.335-4.961-2.716-10.092-6.621-13.21c-3.883-3.101-9.178-3.312-14.298-3.515c-3.808-0.151-7.405-0.294-10.049-1.57
					c-2.563-1.237-4.875-3.923-7.322-6.768c-3.38-3.927-6.874-7.987-11.826-9.113c-0.897-0.203-1.795-0.294-2.694-0.294
					c-3.872,0-7.75,1.684-11.525,3.324c-3.39,1.473-6.895,2.996-9.918,2.996c-3.024,0-6.528-1.523-9.917-2.996
					c-3.775-1.641-7.655-3.325-11.524-3.325c-0.899,0-1.798,0.091-2.695,0.295c-4.952,1.126-8.446,5.187-11.826,9.113
					c-2.448,2.845-4.759,5.532-7.322,6.768c-2.643,1.275-6.24,1.418-10.048,1.569c-5.12,0.204-10.415,0.414-14.299,3.515
					c-3.905,3.118-5.286,8.249-6.621,13.21c-0.987,3.667-1.919,7.13-3.734,9.403c-1.798,2.251-4.954,3.918-8.295,5.684
					c-4.56,2.409-9.275,4.899-11.461,9.431c-2.145,4.445-1.173,9.635-0.233,14.654c0.705,3.765,1.371,7.321,0.712,10.218
					C30.115,108.53,28.026,111.361,25.815,114.358z M31.498,95.302c-0.895-4.781-1.821-9.724,0.11-13.726
					c1.972-4.088,6.465-6.461,10.812-8.757c3.483-1.84,6.773-3.578,8.766-6.073c2.01-2.517,2.982-6.127,4.01-9.949
					c1.272-4.728,2.588-9.617,6.109-12.428c3.499-2.794,8.542-2.994,13.423-3.188c3.968-0.158,7.716-0.307,10.64-1.717
					c2.844-1.372,5.254-4.173,7.808-7.142c3.22-3.742,6.551-7.612,11.02-8.628c0.752-0.171,1.547-0.257,2.363-0.257
					c3.562,0,7.306,1.627,10.928,3.202c3.529,1.533,7.178,3.119,10.513,3.119c3.335,0,6.984-1.586,10.516-3.12
					c3.622-1.573,7.366-3.2,10.928-3.2c0.815,0,1.61,0.086,2.361,0.256c4.469,1.016,7.799,4.885,11.022,8.629
					c2.551,2.966,4.961,5.767,7.808,7.141c2.924,1.411,6.673,1.56,10.642,1.718c4.878,0.194,9.923,0.395,13.421,3.189
					c3.521,2.811,4.836,7.7,6.111,12.436c1.028,3.819,1.999,7.426,4.008,9.942c1.993,2.497,5.284,4.235,8.768,6.074
					c4.345,2.296,8.838,4.669,10.811,8.756c1.93,4,1.005,8.942,0.109,13.726c-0.734,3.922-1.428,7.626-0.701,10.826
					c0.691,3.04,2.87,5.993,5.178,9.12c2.944,3.989,5.987,8.114,5.987,12.75c0,4.637-3.044,8.761-5.987,12.75
					c-2.307,3.127-4.487,6.081-5.178,9.12c-0.727,3.201-0.033,6.905,0.702,10.833c0.895,4.779,1.82,9.72-0.11,13.72
					c-1.973,4.088-6.466,6.461-10.812,8.757c-3.482,1.839-6.772,3.576-8.768,6.074c-2.009,2.516-2.98,6.123-4.011,9.95
					c-1.272,4.728-2.587,9.616-6.109,12.428c-3.497,2.794-8.541,2.994-13.421,3.188c-3.968,0.158-7.716,0.307-10.641,1.717
					c-2.846,1.374-5.256,4.175-7.807,7.141c-3.22,3.743-6.55,7.613-11.021,8.629c-0.753,0.171-1.548,0.258-2.364,0.258
					c-3.557,0-7.302-1.627-10.926-3.202c-3.529-1.533-7.179-3.119-10.514-3.119c-3.335,0-6.984,1.586-10.515,3.12
					c-3.622,1.573-7.367,3.2-10.929,3.2c-0.815,0-1.609-0.086-2.359-0.256c-4.471-1.017-7.802-4.887-11.024-8.632
					c-2.552-2.965-4.962-5.766-7.805-7.137c-2.924-1.411-6.673-1.56-10.642-1.718c-4.878-0.194-9.922-0.395-13.421-3.188
					c-3.52-2.811-4.836-7.7-6.109-12.428c-1.029-3.822-2-7.432-4.01-9.95c-1.992-2.495-5.282-4.233-8.77-6.075
					c-4.344-2.295-8.836-4.668-10.808-8.755c-1.931-4.003-1.005-8.946-0.109-13.726c0.734-3.922,1.428-7.626,0.701-10.826
					c-0.69-3.038-2.869-5.991-5.177-9.12c-2.944-3.989-5.988-8.114-5.988-12.751c0-4.637,3.044-8.762,5.989-12.753
					c2.307-3.127,4.485-6.08,5.176-9.118C32.927,102.929,32.233,99.225,31.498,95.302z"/>
				<path class="st9" d="M28.631,116.437c-2.878,3.9-5.597,7.584-5.597,11.563s2.719,7.663,5.6,11.568
					c2.327,3.154,4.733,6.415,5.516,9.86c0.819,3.603,0.055,7.685-0.685,11.638c-0.875,4.669-1.701,9.078-0.056,12.489
					c1.687,3.496,5.698,5.614,9.944,7.857c3.511,1.854,7.142,3.772,9.396,6.594c2.271,2.844,3.342,6.826,4.379,10.678
					c1.243,4.62,2.418,8.983,5.425,11.385c2.987,2.385,7.488,2.564,12.253,2.753c3.998,0.159,8.131,0.323,11.431,1.915
					c3.219,1.553,5.88,4.646,8.457,7.64c3.147,3.657,6.12,7.11,9.946,7.98c0.605,0.138,1.254,0.208,1.927,0.208
					c3.136,0,6.525-1.472,10.122-3.035c3.717-1.615,7.561-3.285,11.312-3.285c3.752,0,7.595,1.67,11.323,3.29
					c3.585,1.558,6.971,3.03,10.111,3.03c0.672,0,1.321-0.07,1.927-0.207c3.828-0.87,6.801-4.325,9.948-7.983
					c2.573-2.99,5.233-6.083,8.455-7.637c3.298-1.591,7.431-1.756,11.429-1.915c4.766-0.189,9.267-0.368,12.254-2.753
					c3.006-2.4,4.18-6.76,5.425-11.387c1.037-3.851,2.109-7.833,4.379-10.675c2.253-2.821,5.883-4.739,9.398-6.596
					c4.246-2.243,8.256-4.361,9.941-7.856c1.646-3.41,0.82-7.82-0.056-12.491c-0.739-3.949-1.504-8.032-0.684-11.636
					c0.783-3.445,3.188-6.706,5.518-9.864c2.878-3.9,5.597-7.585,5.597-11.563s-2.719-7.663-5.6-11.567
					c-2.326-3.154-4.732-6.415-5.515-9.861c-0.82-3.603-0.055-7.686,0.685-11.638c0.875-4.668,1.701-9.078,0.055-12.488
					c-1.686-3.496-5.697-5.614-9.944-7.857c-3.511-1.855-7.142-3.773-9.395-6.595c-2.269-2.841-3.341-6.823-4.381-10.685
					c-1.243-4.617-2.417-8.978-5.423-11.378c-2.986-2.385-7.488-2.564-12.253-2.753c-3.998-0.159-8.131-0.323-11.43-1.915
					c-3.22-1.553-5.882-4.646-8.458-7.64c-3.147-3.657-6.12-7.11-9.947-7.98c-0.606-0.137-1.253-0.207-1.926-0.207
					c-3.14,0-6.529,1.473-10.122,3.034c-3.717,1.615-7.56,3.285-11.312,3.285c-3.751,0-7.595-1.67-11.312-3.285
					c-3.591-1.56-6.983-3.034-10.124-3.034c-0.672,0-1.319,0.07-1.925,0.207c-3.827,0.87-6.8,4.324-9.949,7.983
					c-2.573,2.991-5.234,6.083-8.454,7.637c-3.298,1.591-7.431,1.756-11.43,1.915c-4.766,0.189-9.267,0.368-12.254,2.753
					c-3.008,2.402-4.182,6.765-5.426,11.385c-1.036,3.851-2.108,7.833-4.378,10.677c-2.253,2.822-5.884,4.74-9.395,6.594
					c-4.247,2.243-8.258,4.361-9.945,7.857c-1.645,3.41-0.819,7.82,0.055,12.489c0.74,3.949,1.505,8.033,0.685,11.638
					C33.366,110.018,30.961,113.279,28.631,116.437z M34.938,94.658c-0.828-4.42-1.609-8.595-0.179-11.561
					c1.472-3.051,5.271-5.058,9.294-7.183c3.647-1.926,7.418-3.918,9.867-6.984c2.465-3.087,3.579-7.224,4.655-11.224
					c1.178-4.375,2.29-8.508,4.913-10.603c2.602-2.078,6.865-2.247,11.377-2.426c4.151-0.165,8.443-0.335,12.022-2.063
					c3.5-1.689,6.266-4.902,8.939-8.009c2.982-3.465,5.798-6.739,9.144-7.499c0.513-0.116,1.044-0.17,1.592-0.17
					c2.828,0,6.098,1.42,9.526,2.91c3.858,1.676,7.847,3.41,11.91,3.41c4.063,0,8.053-1.733,11.91-3.41
					c3.429-1.49,6.694-2.91,9.524-2.91c0.548,0,1.08,0.053,1.594,0.17c3.346,0.76,6.162,4.034,9.145,7.499
					c2.674,3.107,5.439,6.321,8.94,8.009c3.579,1.727,7.871,1.898,12.022,2.063c4.513,0.179,8.775,0.349,11.377,2.426
					c2.623,2.094,3.734,6.227,4.912,10.603c1.077,4,2.19,8.137,4.655,11.224c2.448,3.066,6.22,5.059,9.867,6.985
					c4.022,2.125,7.821,4.131,9.293,7.182c1.432,2.966,0.649,7.141-0.179,11.561c-0.768,4.1-1.562,8.339-0.673,12.246
					c0.853,3.753,3.354,7.144,5.773,10.423c2.728,3.696,5.304,7.188,5.304,10.672s-2.576,6.976-5.304,10.672
					c-2.419,3.279-4.921,6.67-5.773,10.422c-0.889,3.908-0.095,8.147,0.673,12.247c0.828,4.42,1.61,8.595,0.179,11.561
					c-1.472,3.051-5.271,5.058-9.294,7.183c-3.646,1.926-7.418,3.918-9.866,6.984c-2.466,3.087-3.579,7.224-4.656,11.224
					c-1.178,4.375-2.289,8.508-4.912,10.602c-2.603,2.078-6.864,2.247-11.378,2.426c-4.15,0.165-8.442,0.335-12.021,2.063
					c-3.501,1.689-6.267,4.902-8.94,8.01c-2.981,3.465-5.798,6.738-9.144,7.499c-0.514,0.117-1.046,0.17-1.595,0.17
					c-2.83,0-6.095-1.42-9.523-2.91c-3.857-1.676-7.847-3.41-11.91-3.41c-4.063,0-8.052,1.733-11.91,3.41
					c-3.428,1.489-6.697,2.911-9.524,2.911c-0.548,0-1.08-0.054-1.594-0.17c-3.346-0.76-6.163-4.034-9.145-7.499
					c-2.674-3.107-5.439-6.321-8.939-8.009c-3.58-1.727-7.872-1.898-12.023-2.063c-4.513-0.179-8.775-0.349-11.377-2.426
					c-2.623-2.095-3.735-6.228-4.913-10.603c-1.076-4-2.189-8.136-4.655-11.224c-2.448-3.066-6.22-5.058-9.867-6.984
					c-4.022-2.125-7.821-4.131-9.293-7.183c-1.431-2.966-0.649-7.141,0.179-11.561c0.768-4.1,1.562-8.339,0.674-12.247
					c-0.853-3.752-3.355-7.143-5.774-10.422c-2.728-3.696-5.304-7.188-5.304-10.673s2.576-6.977,5.304-10.673
					c2.419-3.279,4.921-6.669,5.774-10.422C36.5,102.998,35.707,98.758,34.938,94.658z"/>
			</g>
		</g>
	</g>
</g>
</svg>
