<svg width="97" height="97" xmlns="http://www.w3.org/2000/svg" xmlns:xlink="http://www.w3.org/1999/xlink" overflow="hidden"><defs><clipPath id="clip0"><rect x="728" y="445" width="97" height="97"/></clipPath><clipPath id="clip1"><rect x="729" y="446" width="96" height="96"/></clipPath><clipPath id="clip2"><rect x="729" y="446" width="96" height="96"/></clipPath><clipPath id="clip3"><rect x="729" y="446" width="96" height="96"/></clipPath></defs><g clip-path="url(#clip0)" transform="translate(-728 -445)"><g clip-path="url(#clip1)"><g clip-path="url(#clip2)"><g clip-path="url(#clip3)"><path d="M812.29 457.436C809.117 452.731 802.731 451.489 798.026 454.662 796.931 455.4 795.989 456.342 795.251 457.436 793.334 460.265 792.929 463.855 794.168 467.039L798.846 477.381 802.884 485.851C803.135 486.34 803.735 486.534 804.225 486.283 804.411 486.188 804.562 486.036 804.657 485.851L808.695 477.381 813.373 467.039C814.612 463.855 814.207 460.265 812.29 457.436ZM811.526 466.27 806.89 476.52 803.78 483.044C803.775 483.054 803.767 483.054 803.762 483.044L800.668 476.556 796.015 466.27C795.034 463.706 795.368 460.824 796.911 458.552 799.467 454.764 804.611 453.765 808.399 456.322 809.284 456.918 810.044 457.68 810.639 458.566 812.175 460.835 812.506 463.711 811.526 466.27Z" fill="#000000" fill-rule="nonzero" fill-opacity="1"/><path d="M742.216 495.006C739.84 498.51 739.339 502.957 740.873 506.903L746.669 519.715 751.672 530.208C751.983 530.815 752.727 531.055 753.333 530.744 753.563 530.626 753.75 530.438 753.869 530.208L758.871 519.715 764.667 506.903C766.202 502.957 765.7 498.51 763.325 495.006 759.395 489.177 751.483 487.637 745.654 491.568 744.297 492.482 743.13 493.65 742.216 495.006ZM761.674 496.135C763.669 499.08 764.096 502.814 762.82 506.133L757.066 518.854 752.779 527.845C752.774 527.855 752.766 527.855 752.761 527.845L748.491 518.89 742.72 506.133C741.443 502.808 741.875 499.069 743.875 496.122 747.189 491.209 753.858 489.913 758.771 493.228 759.917 494.001 760.903 494.988 761.674 496.135Z" fill="#000000" fill-rule="nonzero" fill-opacity="1"/><path d="M772.863 528.888C773.853 528.877 774.86 528.86 775.878 528.836L775.83 526.836C774.821 526.86 773.822 526.877 772.839 526.888Z" fill="#000000" fill-rule="nonzero" fill-opacity="1"/><path d="M780.821 490.313 779.924 488.525C778.968 488.996 778.058 489.558 777.21 490.204L778.436 491.785C779.182 491.219 779.98 490.726 780.821 490.313Z" fill="#000000" fill-rule="nonzero" fill-opacity="1"/><path d="M776.625 493.701 774.937 492.63C774.303 493.612 773.932 494.739 773.859 495.905L775.855 496.025C775.906 495.197 776.171 494.396 776.625 493.701Z" fill="#000000" fill-rule="nonzero" fill-opacity="1"/><path d="M769.846 526.909 768.832 526.91 766.851 526.906 766.843 528.906 768.832 528.91 769.85 528.909 769.846 526.909Z" fill="#000000" fill-rule="nonzero" fill-opacity="1"/><path d="M788.65 504.409C787.67 504.163 786.7 503.918 785.757 503.662L785.234 505.593C786.19 505.851 787.171 506.1 788.163 506.349Z" fill="#000000" fill-rule="nonzero" fill-opacity="1"/><path d="M760.847 526.88 760.847 528.88C761.763 528.88 762.767 528.885 763.841 528.891L763.852 526.891C762.774 526.885 761.767 526.88 760.847 526.88Z" fill="#000000" fill-rule="nonzero" fill-opacity="1"/><path d="M776.628 501.926 777.881 500.367C777.209 499.854 776.666 499.193 776.292 498.434L774.482 499.286C774.987 500.318 775.721 501.221 776.628 501.926Z" fill="#000000" fill-rule="nonzero" fill-opacity="1"/><path d="M788.725 485.674 789.132 487.632C790.064 487.439 791.044 487.261 792.043 487.103L791.731 485.127C790.7 485.29 789.688 485.474 788.725 485.674Z" fill="#000000" fill-rule="nonzero" fill-opacity="1"/><path d="M794.757 484.717 794.982 486.705C796.715 486.508 797.852 486.445 797.9 486.443L797.792 484.445C797.667 484.452 796.517 484.517 794.757 484.717Z" fill="#000000" fill-rule="nonzero" fill-opacity="1"/><path d="M806.694 518.092C806.698 517.218 806.601 516.348 806.406 515.496L804.459 515.952C804.619 516.653 804.698 517.37 804.694 518.089 804.694 518.251 804.685 518.412 804.667 518.573L806.655 518.794C806.681 518.561 806.694 518.326 806.694 518.092Z" fill="#000000" fill-rule="nonzero" fill-opacity="1"/><path d="M796.444 524.588 796.967 526.518C797.968 526.251 798.955 525.932 799.922 525.561L799.198 523.696C798.296 524.042 797.377 524.339 796.444 524.588Z" fill="#000000" fill-rule="nonzero" fill-opacity="1"/><path d="M801.731 522.469 802.78 524.172C803.74 523.603 804.593 522.872 805.303 522.011L803.738 520.766C803.172 521.445 802.493 522.021 801.731 522.469Z" fill="#000000" fill-rule="nonzero" fill-opacity="1"/><path d="M797.417 506.962 796.699 508.829C797.597 509.168 798.472 509.563 799.32 510.012L800.264 508.249C799.343 507.761 798.392 507.331 797.417 506.962Z" fill="#000000" fill-rule="nonzero" fill-opacity="1"/><path d="M802.926 510.014 801.646 511.551C802.34 512.119 802.944 512.789 803.437 513.537L805.117 512.452C804.514 511.534 803.776 510.712 802.926 510.014Z" fill="#000000" fill-rule="nonzero" fill-opacity="1"/><path d="M790.676 525.745 790.966 527.724C792.019 527.569 793.031 527.397 793.975 527.211L793.588 525.248C792.676 525.428 791.696 525.595 790.676 525.745Z" fill="#000000" fill-rule="nonzero" fill-opacity="1"/><path d="M779.394 503.595C780.34 504.028 781.31 504.405 782.3 504.725L782.927 502.826C782.011 502.53 781.113 502.182 780.237 501.782Z" fill="#000000" fill-rule="nonzero" fill-opacity="1"/><path d="M781.914 528.597 781.798 526.6C780.806 526.657 779.81 526.704 778.817 526.743L778.896 528.741C779.9 528.703 780.909 528.655 781.914 528.597Z" fill="#000000" fill-rule="nonzero" fill-opacity="1"/><path d="M782.798 487.305 783.476 489.187C784.336 488.877 785.275 488.583 786.267 488.314L785.743 486.384C784.699 486.667 783.708 486.977 782.798 487.305Z" fill="#000000" fill-rule="nonzero" fill-opacity="1"/><path d="M784.933 528.391C785.951 528.309 786.959 528.215 787.951 528.107L787.734 526.119C786.761 526.225 785.771 526.317 784.773 526.397Z" fill="#000000" fill-rule="nonzero" fill-opacity="1"/><path d="M791.573 505.152 791.066 507.087C792.029 507.339 792.987 507.602 793.924 507.887L794.504 505.973C793.544 505.681 792.56 505.411 791.573 505.152Z" fill="#000000" fill-rule="nonzero" fill-opacity="1"/><path d="M803.77 458.815C801.322 458.815 799.338 460.8 799.338 463.247 799.338 465.695 801.323 467.679 803.77 467.679 806.218 467.679 808.202 465.695 808.202 463.247 808.212 460.81 806.245 458.826 803.807 458.815 803.795 458.815 803.782 458.815 803.77 458.815ZM803.77 465.679C802.427 465.679 801.338 464.59 801.338 463.247 801.338 461.904 802.427 460.815 803.77 460.815 805.113 460.815 806.202 461.904 806.202 463.247 806.216 464.576 805.151 465.665 803.822 465.679 803.805 465.68 803.787 465.68 803.77 465.679Z" fill="#000000" fill-rule="nonzero" fill-opacity="1"/><path d="M747.279 502.205C747.279 505.237 749.738 507.696 752.77 507.696 755.803 507.696 758.261 505.238 758.261 502.205 758.261 499.172 755.803 496.714 752.771 496.714 752.77 496.714 752.77 496.714 752.77 496.714 749.75 496.702 747.292 499.139 747.279 502.159 747.279 502.174 747.279 502.19 747.279 502.205ZM756.261 502.205C756.261 504.133 754.698 505.696 752.771 505.696 750.843 505.696 749.279 504.133 749.279 502.205 749.279 500.277 750.842 498.714 752.77 498.714 752.77 498.714 752.77 498.714 752.77 498.714 754.678 498.693 756.241 500.223 756.261 502.13 756.262 502.155 756.262 502.18 756.261 502.205Z" fill="#000000" fill-rule="nonzero" fill-opacity="1"/></g></g></g></g></svg>