<?xml version="1.0" encoding="utf-8"?>
<!-- Generator: Adobe Illustrator 24.0.0, SVG Export Plug-In . SVG Version: 6.00 Build 0)  -->
<svg version="1.1" id="Layer_1" xmlns="http://www.w3.org/2000/svg" xmlns:xlink="http://www.w3.org/1999/xlink" x="0px" y="0px"
	 viewBox="0 0 256 256" style="enable-background:new 0 0 256 256;" xml:space="preserve">
<style type="text/css">
	.st0{fill:#382B73;}
	.st1{fill:#291B4A;}
	.st2{fill:#ED9ABC;}
	.st3{fill:#E54890;}
	.st4{fill:#D3D3D3;}
	.st5{fill:#EBE7F2;}
	.st6{fill:#F9B087;}
	.st7{fill:#FF8639;}
	.st8{fill:#65C1D6;}
	.st9{fill:#149CB2;}
</style>
<g>
	<g>
		<g>
			<circle class="st0" cx="128" cy="128" r="119.4"/>
		</g>
	</g>
	<g>
		<g>
			<path class="st1" d="M62.063,69.725c12.211-12.925,27.757-21.91,44.955-25.983c1.344-0.318,2.175-1.665,1.856-3.009
				c-0.318-1.343-1.668-2.176-3.009-1.856c-18.15,4.298-34.554,13.778-47.438,27.415c-0.948,1.003-0.903,2.586,0.101,3.534
				c0.483,0.457,1.101,0.683,1.717,0.683C60.908,70.508,61.57,70.245,62.063,69.725z"/>
		</g>
		<g>
			<path class="st1" d="M39.393,102.925c-1.327-0.396-2.717,0.357-3.11,1.681c-2.641,8.852-3.979,18.068-3.979,27.395
				c0,9.325,1.339,18.541,3.979,27.393c0.323,1.085,1.317,1.786,2.395,1.786c0.236,0,0.478-0.034,0.716-0.105
				c1.322-0.395,2.075-1.787,1.681-3.11c-2.501-8.388-3.77-17.124-3.77-25.964c0-8.842,1.269-17.578,3.771-25.965
				C41.468,104.712,40.716,103.319,39.393,102.925z"/>
		</g>
		<g>
			<path class="st1" d="M105.864,225.124c0.193,0.046,0.388,0.068,0.578,0.068c1.133,0,2.158-0.774,2.431-1.924
				c0.318-1.344-0.513-2.69-1.856-3.009c-17.19-4.072-32.729-13.05-44.938-25.966c-0.947-1.003-2.53-1.048-3.534-0.1
				c-1.003,0.949-1.048,2.531-0.099,3.534C71.325,211.354,87.723,220.827,105.864,225.124z"/>
		</g>
		<g>
			<path class="st1" d="M149.557,225.192c0.19,0,0.385-0.022,0.578-0.068c18.15-4.298,34.554-13.778,47.438-27.415
				c0.948-1.003,0.903-2.586-0.101-3.534c-1.004-0.948-2.585-0.904-3.534,0.101c-12.211,12.925-27.757,21.91-44.955,25.983
				c-1.344,0.318-2.175,1.665-1.856,3.009C147.398,224.417,148.424,225.192,149.557,225.192z"/>
		</g>
		<g>
			<path class="st1" d="M216.706,160.774c0.235,0.07,0.474,0.103,0.707,0.103c1.08,0,2.076-0.706,2.397-1.794
				c2.579-8.755,3.887-17.867,3.887-27.083c0-9.351-1.346-18.59-3.999-27.461c-0.396-1.323-1.788-2.078-3.112-1.679
				c-1.322,0.396-2.074,1.789-1.679,3.111c2.515,8.406,3.79,17.163,3.79,26.028c0,8.737-1.239,17.374-3.684,25.669
				C214.624,158.994,215.381,160.384,216.706,160.774z"/>
		</g>
		<g>
			<path class="st1" d="M193.921,69.706c0.491,0.521,1.153,0.783,1.816,0.783c0.617,0,1.234-0.227,1.718-0.683
				c1.003-0.949,1.048-2.531,0.099-3.534c-12.88-13.626-29.277-23.099-47.418-27.395c-1.346-0.32-2.69,0.513-3.009,1.856
				s0.513,2.691,1.856,3.009C166.173,47.813,181.712,56.791,193.921,69.706z"/>
		</g>
		<g>
			<path class="st1" d="M202.728,132c0-41.205-33.522-74.728-74.728-74.728S53.272,90.795,53.272,132S86.795,206.728,128,206.728
				S202.728,173.205,202.728,132z M58.272,132c0-38.448,31.279-69.728,69.728-69.728s69.728,31.28,69.728,69.728
				S166.448,201.728,128,201.728S58.272,170.448,58.272,132z"/>
		</g>
		<g>
			<path class="st1" d="M172.451,132c0-1.381-1.119-2.5-2.5-2.5H86.049c-1.381,0-2.5,1.119-2.5,2.5
				c0,24.51,19.94,44.451,44.451,44.451S172.451,156.51,172.451,132z M88.627,134.5h78.746
				c-1.293,20.594-18.459,36.951-39.373,36.951S89.92,155.094,88.627,134.5z"/>
		</g>
		<g>
			<path class="st1" d="M95.471,103.144c2.291-2.291,5.337-3.553,8.577-3.553c3.239,0,6.286,1.262,8.577,3.553
				c0.488,0.488,1.128,0.732,1.768,0.732s1.279-0.244,1.768-0.732c0.977-0.976,0.977-2.559,0-3.536
				c-3.235-3.235-7.537-5.017-12.112-5.017c-4.576,0-8.877,1.782-12.112,5.018c-0.977,0.976-0.977,2.559,0,3.536
				C92.912,104.12,94.494,104.12,95.471,103.144z"/>
		</g>
		<g>
			<path class="st1" d="M143.375,103.144c2.291-2.292,5.338-3.553,8.577-3.553c3.24,0,6.286,1.262,8.577,3.553
				c0.488,0.488,1.128,0.732,1.768,0.732s1.279-0.244,1.768-0.732c0.977-0.977,0.977-2.56,0-3.536
				c-3.235-3.236-7.536-5.018-12.112-5.018c-4.575,0-8.877,1.782-12.112,5.017c-0.977,0.977-0.977,2.56,0,3.536
				C140.816,104.12,142.398,104.12,143.375,103.144z"/>
		</g>
	</g>
	<g>
		<g>
			<path class="st4" d="M62.063,65.725c12.211-12.925,27.757-21.91,44.955-25.983c1.344-0.318,2.175-1.665,1.856-3.009
				s-1.668-2.176-3.009-1.856c-18.15,4.298-34.554,13.778-47.438,27.415c-0.948,1.003-0.903,2.586,0.101,3.534
				c0.483,0.457,1.101,0.683,1.717,0.683C60.908,66.508,61.57,66.245,62.063,65.725z"/>
		</g>
		<g>
			<path class="st4" d="M39.393,98.925c-1.327-0.397-2.717,0.358-3.11,1.681c-2.641,8.852-3.979,18.068-3.979,27.395
				c0,9.325,1.339,18.541,3.979,27.393c0.323,1.085,1.317,1.786,2.395,1.786c0.236,0,0.478-0.034,0.716-0.105
				c1.322-0.395,2.075-1.787,1.681-3.11c-2.501-8.388-3.77-17.124-3.77-25.964c0-8.842,1.269-17.578,3.771-25.965
				C41.468,100.712,40.716,99.319,39.393,98.925z"/>
		</g>
		<g>
			<path class="st4" d="M105.864,221.124c0.193,0.046,0.388,0.068,0.578,0.068c1.133,0,2.158-0.774,2.431-1.924
				c0.318-1.344-0.513-2.69-1.856-3.009c-17.19-4.072-32.729-13.05-44.938-25.966c-0.947-1.003-2.53-1.048-3.534-0.1
				c-1.003,0.949-1.048,2.531-0.099,3.534C71.325,207.354,87.723,216.827,105.864,221.124z"/>
		</g>
		<g>
			<path class="st4" d="M149.557,221.192c0.19,0,0.385-0.022,0.578-0.068c18.15-4.298,34.554-13.778,47.438-27.415
				c0.948-1.003,0.903-2.586-0.101-3.534c-1.004-0.948-2.585-0.904-3.534,0.101c-12.211,12.925-27.757,21.91-44.955,25.983
				c-1.344,0.318-2.175,1.665-1.856,3.009C147.398,220.417,148.424,221.192,149.557,221.192z"/>
		</g>
		<g>
			<path class="st4" d="M216.706,156.774c0.235,0.07,0.474,0.103,0.707,0.103c1.08,0,2.076-0.706,2.397-1.794
				c2.579-8.755,3.887-17.867,3.887-27.083c0-9.351-1.346-18.59-3.999-27.461c-0.396-1.323-1.788-2.078-3.112-1.679
				c-1.322,0.396-2.074,1.789-1.679,3.111c2.515,8.406,3.79,17.163,3.79,26.028c0,8.737-1.239,17.374-3.684,25.669
				C214.624,154.994,215.381,156.384,216.706,156.774z"/>
		</g>
		<g>
			<path class="st4" d="M193.921,65.706c0.491,0.521,1.153,0.783,1.816,0.783c0.617,0,1.234-0.227,1.718-0.683
				c1.003-0.949,1.048-2.531,0.099-3.534c-12.88-13.626-29.277-23.099-47.418-27.395c-1.346-0.32-2.69,0.513-3.009,1.856
				c-0.318,1.344,0.513,2.691,1.856,3.009C166.173,43.813,181.712,52.791,193.921,65.706z"/>
		</g>
		<g>
			<g>
				<path class="st5" d="M62.063,65.725c12.211-12.925,27.757-21.91,44.955-25.983c1.344-0.318,2.175-1.665,1.856-3.009
					c-0.272-1.149-1.299-1.925-2.43-1.925c-0.191,0-0.385,0.022-0.579,0.068c-18.15,4.298-34.554,13.778-47.438,27.415
					c-0.948,1.003-0.903,2.586,0.101,3.534c0.483,0.457,1.101,0.683,1.717,0.683C60.908,66.508,61.57,66.245,62.063,65.725z
					 M59.245,64.036c-0.008-0.267,0.089-0.521,0.273-0.715C72.2,49.898,88.347,40.566,106.213,36.335
					c0.076-0.018,0.154-0.027,0.231-0.027c0.456,0,0.864,0.324,0.97,0.771c0.062,0.26,0.018,0.529-0.122,0.756
					c-0.14,0.227-0.36,0.386-0.621,0.448c-17.485,4.141-33.287,13.275-45.699,26.413c-0.191,0.202-0.45,0.314-0.728,0.314
					c-0.256,0-0.5-0.097-0.687-0.273C59.364,64.551,59.253,64.303,59.245,64.036z"/>
			</g>
		</g>
		<g>
			<g>
				<path class="st5" d="M39.393,98.925c-0.24-0.072-0.481-0.106-0.719-0.106c-1.078,0-2.069,0.703-2.391,1.786
					c-2.641,8.852-3.979,18.068-3.979,27.395c0,9.325,1.339,18.541,3.979,27.393c0.323,1.085,1.317,1.786,2.395,1.786
					c0.236,0,0.478-0.034,0.716-0.105c1.322-0.395,2.075-1.787,1.681-3.11c-2.501-8.388-3.77-17.124-3.77-25.964
					c0-8.842,1.269-17.578,3.771-25.965C41.468,100.712,40.716,99.319,39.393,98.925z M39.636,101.606
					c-2.543,8.526-3.833,17.406-3.833,26.394c0,8.985,1.289,17.865,3.832,26.393c0.158,0.528-0.144,1.086-0.673,1.244
					c-0.093,0.028-0.189,0.042-0.286,0.042c-0.438,0-0.832-0.294-0.957-0.715c-2.599-8.714-3.916-17.786-3.916-26.964
					c0-9.181,1.318-18.253,3.917-26.967c0.125-0.42,0.517-0.714,0.954-0.714c0.097,0,0.194,0.014,0.29,0.043
					c0.256,0.076,0.467,0.248,0.593,0.482C39.684,101.08,39.712,101.35,39.636,101.606z"/>
			</g>
		</g>
		<g>
			<g>
				<path class="st5" d="M105.864,221.124c0.193,0.046,0.388,0.068,0.578,0.068c1.133,0,2.158-0.774,2.431-1.924
					c0.318-1.344-0.513-2.69-1.856-3.009c-17.19-4.072-32.729-13.05-44.938-25.966c-0.491-0.52-1.153-0.783-1.817-0.783
					c-0.616,0-1.234,0.227-1.718,0.683c-1.003,0.949-1.048,2.531-0.099,3.534C71.325,207.354,87.723,216.827,105.864,221.124z
					 M59.262,191.982c0.008-0.267,0.119-0.515,0.312-0.698c0.187-0.177,0.431-0.274,0.688-0.274c0.278,0,0.536,0.111,0.726,0.313
					c12.41,13.128,28.207,22.256,45.683,26.395c0.537,0.127,0.87,0.667,0.743,1.203c-0.107,0.454-0.507,0.77-0.971,0.77
					c-0.077,0-0.155-0.009-0.232-0.028c-17.856-4.229-33.996-13.554-46.675-26.968C59.351,192.503,59.255,192.249,59.262,191.982z"
					/>
			</g>
		</g>
		<g>
			<g>
				<path class="st5" d="M149.557,221.192c0.19,0,0.385-0.022,0.578-0.068c18.15-4.298,34.554-13.778,47.438-27.415
					c0.948-1.003,0.903-2.586-0.101-3.534c-0.483-0.456-1.101-0.683-1.717-0.683c-0.663,0-1.325,0.262-1.817,0.783
					c-12.211,12.925-27.757,21.91-44.955,25.983c-1.344,0.318-2.175,1.665-1.856,3.009
					C147.398,220.417,148.424,221.192,149.557,221.192z M148.708,218.166c0.14-0.227,0.36-0.386,0.621-0.448
					c17.485-4.141,33.287-13.275,45.7-26.413c0.191-0.202,0.449-0.313,0.727-0.313c0.256,0,0.5,0.097,0.687,0.273
					c0.194,0.183,0.305,0.431,0.313,0.698c0.008,0.267-0.089,0.521-0.273,0.715c-12.682,13.423-28.828,22.755-46.694,26.986
					c-0.076,0.018-0.154,0.027-0.232,0.027c-0.464,0-0.864-0.317-0.971-0.77C148.524,218.662,148.567,218.393,148.708,218.166z"/>
			</g>
		</g>
		<g>
			<g>
				<path class="st5" d="M216.706,156.774c0.235,0.07,0.474,0.103,0.707,0.103c1.08,0,2.076-0.706,2.397-1.794
					c2.579-8.755,3.887-17.867,3.887-27.083c0-9.351-1.346-18.59-3.999-27.461c-0.325-1.083-1.316-1.785-2.392-1.785
					c-0.238,0-0.48,0.034-0.72,0.107c-1.322,0.396-2.074,1.789-1.679,3.111c2.515,8.406,3.79,17.163,3.79,26.028
					c0,8.737-1.239,17.374-3.684,25.669C214.624,154.994,215.381,156.384,216.706,156.774z M216.453,154.093
					c2.485-8.433,3.745-17.212,3.745-26.093c0-9.01-1.296-17.912-3.853-26.458c-0.158-0.528,0.143-1.087,0.674-1.245
					c0.095-0.029,0.192-0.043,0.288-0.043c0.436,0,0.829,0.294,0.955,0.715c2.612,8.732,3.936,17.827,3.936,27.031
					c0,9.073-1.287,18.042-3.825,26.658c-0.125,0.423-0.519,0.719-0.959,0.719c-0.095,0-0.19-0.014-0.283-0.042
					C216.601,155.179,216.297,154.622,216.453,154.093z"/>
			</g>
		</g>
		<g>
			<g>
				<path class="st5" d="M193.921,65.706c0.491,0.521,1.153,0.783,1.816,0.783c0.617,0,1.234-0.227,1.718-0.683
					c1.003-0.949,1.048-2.531,0.099-3.534c-12.88-13.626-29.277-23.099-47.418-27.395c-0.195-0.046-0.389-0.069-0.581-0.069
					c-1.132,0-2.156,0.776-2.428,1.925c-0.318,1.344,0.513,2.691,1.856,3.009C166.173,43.813,181.712,52.791,193.921,65.706z
					 M148.708,37.834c-0.14-0.227-0.184-0.496-0.122-0.756c0.108-0.454,0.506-0.771,0.968-0.771c0.078,0,0.156,0.01,0.235,0.028
					c17.856,4.229,33.996,13.554,46.674,26.966c0.184,0.194,0.281,0.448,0.273,0.715c-0.008,0.267-0.119,0.515-0.312,0.698
					c-0.187,0.177-0.431,0.274-0.688,0.274c-0.278,0-0.536-0.111-0.726-0.313C182.6,51.547,166.804,42.42,149.329,38.282
					C149.069,38.22,148.849,38.062,148.708,37.834z"/>
			</g>
		</g>
		<g>
			<path class="st2" d="M202.728,128c0-41.205-33.522-74.728-74.728-74.728S53.272,86.795,53.272,128S86.795,202.728,128,202.728
				S202.728,169.205,202.728,128z M58.272,128c0-38.448,31.279-69.728,69.728-69.728s69.728,31.28,69.728,69.728
				S166.448,197.728,128,197.728S58.272,166.448,58.272,128z"/>
		</g>
		<g>
			<g>
				<path class="st3" d="M199.228,128c0-39.275-31.953-71.228-71.228-71.228S56.772,88.725,56.772,128S88.725,199.228,128,199.228
					S199.228,167.275,199.228,128z M58.272,128c0-38.448,31.279-69.728,69.728-69.728s69.728,31.28,69.728,69.728
					S166.448,197.728,128,197.728S58.272,166.448,58.272,128z"/>
				<path class="st3" d="M202.728,128c0-41.205-33.522-74.728-74.728-74.728S53.272,86.795,53.272,128S86.795,202.728,128,202.728
					S202.728,169.205,202.728,128z M54.772,128c0-40.378,32.85-73.228,73.228-73.228s73.228,32.85,73.228,73.228
					s-32.85,73.228-73.228,73.228S54.772,168.378,54.772,128z"/>
			</g>
		</g>
		<g>
			<path class="st6" d="M172.451,128c0-1.381-1.119-2.5-2.5-2.5H86.049c-1.381,0-2.5,1.119-2.5,2.5
				c0,24.51,19.94,44.451,44.451,44.451S172.451,152.51,172.451,128z M88.627,130.5h78.746
				c-1.293,20.594-18.459,36.951-39.373,36.951S89.92,151.094,88.627,130.5z"/>
		</g>
		<g>
			<path class="st6" d="M95.471,99.144c2.291-2.291,5.337-3.553,8.577-3.553c3.239,0,6.286,1.262,8.577,3.553
				c0.488,0.488,1.128,0.732,1.768,0.732s1.279-0.244,1.768-0.732c0.977-0.976,0.977-2.559,0-3.536
				c-3.235-3.235-7.537-5.017-12.112-5.017c-4.576,0-8.877,1.782-12.112,5.018c-0.977,0.976-0.977,2.559,0,3.536
				C92.912,100.12,94.494,100.12,95.471,99.144z"/>
		</g>
		<g>
			<path class="st6" d="M143.375,99.144c2.291-2.292,5.338-3.553,8.577-3.553c3.24,0,6.286,1.262,8.577,3.553
				c0.488,0.488,1.128,0.732,1.768,0.732s1.279-0.244,1.768-0.732c0.977-0.977,0.977-2.56,0-3.536
				c-3.235-3.236-7.536-5.018-12.112-5.018c-4.575,0-8.877,1.782-12.112,5.017c-0.977,0.977-0.977,2.56,0,3.536
				C140.816,100.12,142.398,100.12,143.375,99.144z"/>
		</g>
		<g>
			<g>
				<path class="st7" d="M172.451,128c0-1.381-1.119-2.5-2.5-2.5H86.049c-1.381,0-2.5,1.119-2.5,2.5
					c0,24.51,19.94,44.451,44.451,44.451S172.451,152.51,172.451,128z M85.049,128c0-0.552,0.449-1,1-1h83.902c0.551,0,1,0.448,1,1
					c0,23.683-19.268,42.951-42.951,42.951S85.049,151.683,85.049,128z"/>
				<path class="st7" d="M168.87,130.594c0.026-0.413-0.12-0.819-0.404-1.121c-0.284-0.302-0.679-0.473-1.093-0.473H88.627
					c-0.414,0-0.81,0.171-1.093,0.473c-0.284,0.302-0.43,0.708-0.404,1.121c1.35,21.509,19.303,38.357,40.87,38.357
					S167.52,152.103,168.87,130.594z M88.627,130.5h78.746c-1.293,20.594-18.459,36.951-39.373,36.951S89.92,151.094,88.627,130.5z"
					/>
			</g>
		</g>
		<g>
			<g>
				<path class="st7" d="M95.471,99.144c2.291-2.291,5.337-3.553,8.577-3.553c3.239,0,6.286,1.262,8.577,3.553
					c0.488,0.488,1.128,0.732,1.768,0.732s1.279-0.244,1.768-0.732c0.977-0.976,0.977-2.559,0-3.536
					c-3.235-3.235-7.537-5.017-12.112-5.017c-4.576,0-8.877,1.782-12.112,5.018c-0.977,0.976-0.977,2.559,0,3.536
					c0.488,0.488,1.128,0.732,1.768,0.732C94.343,99.876,94.982,99.632,95.471,99.144z M92.703,97.376
					c0-0.267,0.104-0.518,0.293-0.707c2.952-2.952,6.877-4.578,11.052-4.578c4.175,0,8.1,1.626,11.052,4.578
					c0.189,0.189,0.293,0.44,0.293,0.708c0,0.267-0.104,0.518-0.293,0.707c-0.189,0.189-0.44,0.293-0.707,0.293
					c-0.267,0-0.518-0.104-0.707-0.292c-2.574-2.575-5.997-3.993-9.638-3.993c-3.641,0-7.063,1.418-9.638,3.992
					c-0.189,0.189-0.44,0.293-0.707,0.293c-0.267,0-0.518-0.104-0.707-0.293C92.807,97.894,92.703,97.643,92.703,97.376z"/>
			</g>
		</g>
		<g>
			<g>
				<path class="st7" d="M143.375,99.144c2.291-2.292,5.338-3.553,8.577-3.553c3.24,0,6.286,1.262,8.577,3.553
					c0.488,0.488,1.128,0.732,1.768,0.732s1.279-0.244,1.768-0.732c0.977-0.977,0.977-2.56,0-3.536
					c-3.235-3.236-7.536-5.018-12.112-5.018c-4.575,0-8.877,1.782-12.112,5.017c-0.977,0.977-0.977,2.56,0,3.536
					c0.488,0.488,1.128,0.732,1.768,0.732S142.887,99.632,143.375,99.144z M140.607,97.376c0-0.267,0.104-0.518,0.293-0.708
					c2.952-2.952,6.877-4.578,11.052-4.578c4.175,0,8.1,1.626,11.052,4.579c0.189,0.189,0.293,0.44,0.293,0.707
					c0,0.267-0.104,0.518-0.293,0.707c-0.189,0.189-0.44,0.293-0.707,0.293c-0.267,0-0.518-0.104-0.707-0.293
					c-2.574-2.574-5.997-3.992-9.638-3.992c-3.641,0-7.064,1.418-9.637,3.992c-0.189,0.189-0.44,0.293-0.707,0.293
					c-0.267,0-0.518-0.104-0.707-0.293C140.711,97.894,140.607,97.643,140.607,97.376z"/>
			</g>
		</g>
	</g>
</g>
</svg>
