<?xml version="1.0" encoding="utf-8"?>
<!-- Generator: Adobe Illustrator 24.0.0, SVG Export Plug-In . SVG Version: 6.00 Build 0)  -->
<svg version="1.1" id="Layer_1" xmlns="http://www.w3.org/2000/svg" xmlns:xlink="http://www.w3.org/1999/xlink" x="0px" y="0px"
	 viewBox="0 0 256 256" style="enable-background:new 0 0 256 256;" xml:space="preserve">
<style type="text/css">
	.st0{fill:#382B73;}
	.st1{fill:#291B4A;}
	.st2{fill:#ED9ABC;}
	.st3{fill:#E54890;}
	.st4{fill:#D3D3D3;}
	.st5{fill:#EBE7F2;}
	.st6{fill:#F9B087;}
	.st7{fill:#FF8639;}
	.st8{fill:#65C1D6;}
	.st9{fill:#149CB2;}
</style>
<g>
	<g>
		<g>
			<ellipse transform="matrix(0.7071 -0.7071 0.7071 0.7071 -53.0193 128)" class="st0" cx="128" cy="128" rx="119.4" ry="119.4"/>
		</g>
	</g>
	<g>
		<g>
			<path class="st1" d="M209.233,132c0-44.792-36.441-81.233-81.233-81.233S46.767,87.208,46.767,132S83.208,213.233,128,213.233
				S209.233,176.792,209.233,132z M51.767,132c0-42.035,34.198-76.233,76.233-76.233S204.233,89.965,204.233,132
				S170.035,208.233,128,208.233S51.767,174.035,51.767,132z"/>
		</g>
		<g>
			<path class="st1" d="M25.815,118.358c-3.088,4.185-6.281,8.512-6.281,13.642s3.193,9.457,6.281,13.642
				c2.211,2.998,4.3,5.829,4.921,8.562c0.659,2.897-0.007,6.453-0.712,10.218c-0.94,5.019-1.912,10.208,0.232,14.654
				c2.186,4.532,6.901,7.022,11.461,9.431c3.341,1.765,6.498,3.432,8.295,5.684c1.815,2.273,2.747,5.736,3.734,9.403
				c1.335,4.961,2.716,10.092,6.621,13.21c3.884,3.101,9.178,3.312,14.298,3.515c3.808,0.151,7.405,0.294,10.049,1.57
				c2.563,1.236,4.875,3.923,7.322,6.768c3.379,3.927,6.874,7.988,11.827,9.114c0.897,0.204,1.796,0.295,2.696,0.295
				c3.87,0,7.748-1.686,11.522-3.325c3.389-1.473,6.894-2.996,9.917-2.996s6.528,1.523,9.917,2.996
				c4.652,2.021,9.462,4.108,14.219,3.03c4.952-1.126,8.446-5.187,11.826-9.113c2.448-2.845,4.759-5.532,7.322-6.768
				c2.643-1.275,6.24-1.418,10.048-1.569c5.12-0.204,10.415-0.414,14.299-3.515c3.905-3.118,5.286-8.249,6.621-13.21
				c0.987-3.667,1.919-7.13,3.734-9.403c1.798-2.251,4.954-3.918,8.295-5.684c4.56-2.409,9.275-4.899,11.461-9.431
				c2.145-4.445,1.173-9.635,0.233-14.654c-0.705-3.765-1.371-7.321-0.712-10.218c0.621-2.733,2.71-5.564,4.921-8.562
				c3.088-4.185,6.281-8.512,6.281-13.642s-3.193-9.457-6.281-13.642c-2.211-2.998-4.3-5.829-4.921-8.562
				c-0.659-2.897,0.007-6.453,0.712-10.218c0.94-5.019,1.912-10.208-0.232-14.654c-2.186-4.532-6.901-7.022-11.461-9.431
				c-3.341-1.765-6.498-3.432-8.295-5.684c-1.815-2.273-2.747-5.736-3.734-9.403c-1.335-4.961-2.716-10.092-6.621-13.21
				c-3.884-3.101-9.178-3.312-14.298-3.515c-3.808-0.151-7.405-0.294-10.049-1.57c-2.563-1.236-4.875-3.923-7.322-6.768
				c-3.379-3.927-6.874-7.988-11.827-9.114c-4.757-1.081-9.567,1.009-14.219,3.03c-3.389,1.473-6.894,2.996-9.917,2.996
				s-6.528-1.523-9.917-2.996c-4.652-2.021-9.465-4.111-14.219-3.03c-4.952,1.126-8.446,5.187-11.826,9.113
				c-2.448,2.845-4.759,5.532-7.322,6.768c-2.643,1.275-6.24,1.418-10.048,1.569c-5.12,0.204-10.415,0.414-14.299,3.515
				c-3.905,3.118-5.286,8.249-6.621,13.21c-0.987,3.667-1.919,7.13-3.734,9.403c-1.798,2.251-4.954,3.918-8.295,5.684
				c-4.56,2.409-9.275,4.899-11.461,9.431c-2.145,4.445-1.173,9.635-0.233,14.654c0.705,3.765,1.371,7.321,0.712,10.218
				C30.115,112.53,28.026,115.361,25.815,118.358z M35.612,110.905c0.888-3.908,0.094-8.147-0.674-12.247
				c-0.828-4.42-1.609-8.595-0.179-11.561c1.472-3.051,5.271-5.058,9.294-7.183c3.647-1.926,7.418-3.918,9.867-6.984
				c2.465-3.087,3.579-7.224,4.655-11.224c1.178-4.375,2.29-8.508,4.913-10.603c2.602-2.078,6.865-2.247,11.377-2.426
				c4.151-0.165,8.443-0.335,12.022-2.063c3.5-1.689,6.266-4.902,8.939-8.009c2.982-3.465,5.798-6.739,9.144-7.499
				c3.162-0.717,7.025,0.962,11.118,2.74c3.858,1.676,7.847,3.41,11.91,3.41s8.052-1.733,11.91-3.41
				c4.093-1.778,7.959-3.46,11.118-2.74c3.346,0.76,6.163,4.034,9.145,7.499c2.674,3.107,5.439,6.321,8.939,8.009
				c3.58,1.727,7.872,1.898,12.023,2.063c4.513,0.179,8.775,0.349,11.377,2.426c2.623,2.095,3.735,6.228,4.913,10.603
				c1.076,4,2.189,8.136,4.655,11.224c2.448,3.066,6.22,5.058,9.867,6.984c4.022,2.125,7.821,4.131,9.293,7.183
				c1.431,2.966,0.649,7.141-0.179,11.561c-0.768,4.1-1.562,8.339-0.674,12.247c0.853,3.752,3.355,7.143,5.774,10.422
				c2.728,3.696,5.304,7.188,5.304,10.673s-2.576,6.977-5.304,10.673c-2.419,3.279-4.921,6.669-5.774,10.422
				c-0.888,3.908-0.094,8.147,0.674,12.247c0.828,4.42,1.609,8.595,0.179,11.561c-1.472,3.051-5.271,5.058-9.294,7.183
				c-3.647,1.926-7.418,3.918-9.867,6.984c-2.465,3.087-3.579,7.224-4.655,11.224c-1.178,4.375-2.29,8.508-4.913,10.603
				c-2.602,2.078-6.865,2.247-11.377,2.426c-4.151,0.165-8.443,0.335-12.022,2.063c-3.5,1.689-6.266,4.902-8.939,8.009
				c-2.982,3.465-5.798,6.739-9.144,7.499c-3.159,0.719-7.025-0.961-11.118-2.74c-3.858-1.676-7.847-3.41-11.91-3.41
				s-8.052,1.733-11.91,3.41c-4.093,1.779-7.959,3.458-11.118,2.74c-3.346-0.76-6.163-4.034-9.145-7.499
				c-2.674-3.107-5.439-6.321-8.939-8.009c-3.58-1.727-7.872-1.898-12.023-2.063c-4.513-0.179-8.775-0.349-11.377-2.426
				c-2.623-2.095-3.735-6.228-4.913-10.603c-1.076-4-2.189-8.136-4.655-11.224c-2.448-3.066-6.22-5.058-9.867-6.984
				c-4.022-2.125-7.821-4.131-9.293-7.183c-1.431-2.966-0.649-7.141,0.179-11.561c0.768-4.1,1.562-8.339,0.674-12.247
				c-0.853-3.752-3.355-7.143-5.774-10.422c-2.728-3.696-5.304-7.188-5.304-10.673s2.576-6.977,5.304-10.673
				C32.257,118.048,34.759,114.658,35.612,110.905z"/>
		</g>
		<g>
			<path class="st1" d="M100.929,117.881H75.22c-1.381,0-2.5,1.119-2.5,2.5v50.752c0,1.381,1.119,2.5,2.5,2.5h25.708
				c1.381,0,2.5-1.119,2.5-2.5v-41.691c3.874-3.37,19.562-17.083,27.17-24.794c6.688-6.776,8.99-17.592,9.743-25.473
				c0.141-1.47,1.046-2.66,2.422-3.185c1.329-0.507,2.744-0.284,3.847,0.59c1.092,1.926,6.729,12.668,4,24.423
				c-0.313,1.345,0.525,2.688,1.87,3c1.35,0.315,2.689-0.525,3-1.87c3.46-14.904-4.458-27.942-4.796-28.49
				c-0.119-0.192-0.263-0.367-0.429-0.52c-2.521-2.334-6.076-3.026-9.274-1.807c-3.145,1.199-5.297,4.027-5.618,7.381
				c-0.676,7.073-2.669,16.707-8.324,22.437c-5.992,6.071-17.462,16.262-23.612,21.662v-2.418
				C103.429,119,102.31,117.881,100.929,117.881z M98.429,168.633H77.72v-45.752h20.708V168.633z"/>
		</g>
		<g>
			<path class="st1" d="M174.965,168.633h-33.047l-26.516-5.32c-1.356-0.272-2.671,0.606-2.943,1.959
				c-0.271,1.354,0.605,2.671,1.959,2.943l26.759,5.369c0.162,0.032,0.327,0.049,0.492,0.049h33.296c4.585,0,8.315-3.73,8.315-8.315
				v-43.836c0-4.585-3.73-8.315-8.315-8.315h-27.481c-4.585,0-8.315,3.73-8.315,8.315v35.259c0,1.381,1.119,2.5,2.5,2.5
				s2.5-1.119,2.5-2.5v-4.67h20.716c1.381,0,2.5-1.119,2.5-2.5s-1.119-2.5-2.5-2.5h-20.716v-11.724h20.716
				c1.381,0,2.5-1.119,2.5-2.5s-1.119-2.5-2.5-2.5h-20.716v-8.865c0-1.828,1.487-3.315,3.315-3.315h27.481
				c1.828,0,3.315,1.487,3.315,3.315v43.836C178.28,167.146,176.792,168.633,174.965,168.633z"/>
		</g>
	</g>
	<g>
		<g>
			<path class="st4" d="M209.233,128c0-44.792-36.441-81.233-81.233-81.233S46.767,83.208,46.767,128S83.208,209.233,128,209.233
				S209.233,172.792,209.233,128z M51.767,128c0-42.035,34.198-76.233,76.233-76.233S204.233,85.965,204.233,128
				S170.035,204.233,128,204.233S51.767,170.035,51.767,128z"/>
		</g>
		<g>
			<g>
				<path class="st5" d="M209.233,128c0-44.792-36.441-81.233-81.233-81.233S46.767,83.208,46.767,128S83.208,209.233,128,209.233
					S209.233,172.792,209.233,128z M48.267,128c0-43.965,35.768-79.733,79.733-79.733c43.965,0,79.733,35.768,79.733,79.733
					S171.965,207.733,128,207.733C84.035,207.733,48.267,171.965,48.267,128z"/>
				<path class="st5" d="M205.733,128c0-42.862-34.871-77.733-77.733-77.733S50.267,85.138,50.267,128S85.138,205.733,128,205.733
					S205.733,170.862,205.733,128z M51.767,128c0-42.035,34.198-76.233,76.233-76.233S204.233,85.965,204.233,128
					S170.035,204.233,128,204.233S51.767,170.035,51.767,128z"/>
			</g>
		</g>
		<g>
			<path class="st6" d="M25.815,114.358c-3.088,4.185-6.281,8.512-6.281,13.642s3.193,9.457,6.281,13.642
				c2.211,2.998,4.3,5.829,4.921,8.562c0.659,2.897-0.007,6.453-0.712,10.218c-0.94,5.019-1.912,10.208,0.232,14.654
				c2.186,4.532,6.901,7.022,11.461,9.431c3.341,1.765,6.498,3.432,8.295,5.684c1.815,2.273,2.747,5.736,3.734,9.403
				c1.335,4.961,2.716,10.092,6.621,13.21c3.884,3.101,9.178,3.312,14.298,3.515c3.808,0.151,7.405,0.294,10.049,1.57
				c2.563,1.236,4.875,3.923,7.322,6.768c3.379,3.927,6.874,7.988,11.827,9.114c0.897,0.204,1.796,0.295,2.696,0.295
				c3.87,0,7.748-1.686,11.522-3.325c3.389-1.473,6.894-2.996,9.917-2.996s6.528,1.523,9.917,2.996
				c4.652,2.021,9.462,4.108,14.219,3.03c4.952-1.126,8.446-5.187,11.826-9.113c2.448-2.845,4.759-5.532,7.322-6.768
				c2.643-1.275,6.24-1.418,10.048-1.569c5.12-0.204,10.415-0.414,14.299-3.515c3.905-3.118,5.286-8.249,6.621-13.21
				c0.987-3.667,1.919-7.13,3.734-9.403c1.798-2.251,4.954-3.918,8.295-5.684c4.56-2.409,9.275-4.899,11.461-9.431
				c2.145-4.445,1.173-9.635,0.233-14.654c-0.705-3.765-1.371-7.321-0.712-10.218c0.621-2.733,2.71-5.564,4.921-8.562
				c3.088-4.185,6.281-8.512,6.281-13.642s-3.193-9.457-6.281-13.642c-2.211-2.998-4.3-5.829-4.921-8.562
				c-0.659-2.897,0.007-6.453,0.712-10.218c0.94-5.019,1.912-10.208-0.232-14.654c-2.186-4.532-6.901-7.022-11.461-9.431
				c-3.341-1.765-6.498-3.432-8.295-5.684c-1.815-2.273-2.747-5.736-3.734-9.403c-1.335-4.961-2.716-10.092-6.621-13.21
				c-3.884-3.101-9.178-3.312-14.298-3.515c-3.808-0.151-7.405-0.294-10.049-1.57c-2.563-1.236-4.875-3.923-7.322-6.768
				c-3.379-3.927-6.874-7.988-11.827-9.114c-4.757-1.079-9.567,1.009-14.219,3.03c-3.389,1.473-6.894,2.996-9.917,2.996
				s-6.528-1.523-9.917-2.996c-4.652-2.021-9.465-4.111-14.219-3.03c-4.952,1.126-8.446,5.187-11.826,9.113
				c-2.448,2.845-4.759,5.532-7.322,6.768c-2.643,1.275-6.24,1.418-10.048,1.569c-5.12,0.204-10.415,0.414-14.299,3.515
				c-3.905,3.118-5.286,8.249-6.621,13.21c-0.987,3.667-1.919,7.13-3.734,9.403c-1.798,2.251-4.954,3.918-8.295,5.684
				c-4.56,2.409-9.275,4.899-11.461,9.431c-2.145,4.445-1.173,9.635-0.233,14.654c0.705,3.765,1.371,7.321,0.712,10.218
				C30.115,108.53,28.026,111.361,25.815,114.358z M35.612,106.905c0.888-3.908,0.094-8.147-0.674-12.247
				c-0.828-4.42-1.609-8.595-0.179-11.561c1.472-3.051,5.271-5.058,9.294-7.183c3.647-1.926,7.418-3.918,9.867-6.984
				c2.465-3.087,3.579-7.224,4.655-11.224c1.178-4.375,2.29-8.508,4.913-10.603c2.602-2.078,6.865-2.247,11.377-2.426
				c4.151-0.165,8.443-0.335,12.022-2.063c3.5-1.689,6.266-4.902,8.939-8.009c2.982-3.465,5.798-6.739,9.144-7.499
				c3.162-0.719,7.025,0.962,11.118,2.74c3.858,1.676,7.847,3.41,11.91,3.41s8.052-1.733,11.91-3.41
				c4.093-1.779,7.959-3.458,11.118-2.74c3.346,0.76,6.163,4.034,9.145,7.499c2.674,3.107,5.439,6.321,8.939,8.009
				c3.58,1.727,7.872,1.898,12.023,2.063c4.513,0.179,8.775,0.349,11.377,2.426c2.623,2.095,3.735,6.228,4.913,10.603
				c1.076,4,2.189,8.136,4.655,11.224c2.448,3.066,6.22,5.058,9.867,6.984c4.022,2.125,7.821,4.131,9.293,7.183
				c1.431,2.966,0.649,7.141-0.179,11.561c-0.768,4.1-1.562,8.339-0.674,12.247c0.853,3.752,3.355,7.143,5.774,10.422
				c2.728,3.696,5.304,7.188,5.304,10.673s-2.576,6.977-5.304,10.673c-2.419,3.279-4.921,6.669-5.774,10.422
				c-0.888,3.908-0.094,8.147,0.674,12.247c0.828,4.42,1.609,8.595,0.179,11.561c-1.472,3.051-5.271,5.058-9.294,7.183
				c-3.647,1.926-7.418,3.918-9.867,6.984c-2.465,3.087-3.579,7.224-4.655,11.224c-1.178,4.375-2.29,8.508-4.913,10.603
				c-2.602,2.078-6.865,2.247-11.377,2.426c-4.151,0.165-8.443,0.335-12.022,2.063c-3.5,1.689-6.266,4.902-8.939,8.009
				c-2.982,3.465-5.798,6.739-9.144,7.499c-3.159,0.718-7.025-0.961-11.118-2.74c-3.858-1.676-7.847-3.41-11.91-3.41
				s-8.052,1.733-11.91,3.41c-4.093,1.778-7.959,3.46-11.118,2.74c-3.346-0.76-6.163-4.034-9.145-7.499
				c-2.674-3.107-5.439-6.321-8.939-8.009c-3.58-1.727-7.872-1.898-12.023-2.063c-4.513-0.179-8.775-0.349-11.377-2.426
				c-2.623-2.095-3.735-6.228-4.913-10.603c-1.076-4-2.189-8.136-4.655-11.224c-2.448-3.066-6.22-5.058-9.867-6.984
				c-4.022-2.125-7.821-4.131-9.293-7.183c-1.431-2.966-0.649-7.141,0.179-11.561c0.768-4.1,1.562-8.339,0.674-12.247
				c-0.853-3.752-3.355-7.143-5.774-10.422c-2.728-3.696-5.304-7.188-5.304-10.673s2.576-6.977,5.304-10.673
				C32.257,114.048,34.759,110.658,35.612,106.905z"/>
		</g>
		<g>
			<g>
				<path class="st7" d="M25.815,114.358c-3.088,4.185-6.281,8.512-6.281,13.642s3.193,9.457,6.281,13.642
					c2.211,2.998,4.3,5.829,4.921,8.562c0.659,2.897-0.007,6.453-0.712,10.218c-0.94,5.019-1.912,10.208,0.232,14.654
					c2.186,4.532,6.901,7.022,11.461,9.431c3.341,1.765,6.498,3.432,8.295,5.684c1.815,2.273,2.747,5.736,3.734,9.403
					c1.335,4.961,2.716,10.092,6.621,13.21c3.884,3.101,9.178,3.312,14.298,3.515c3.808,0.151,7.405,0.294,10.049,1.57
					c2.563,1.236,4.875,3.923,7.322,6.768c3.379,3.927,6.874,7.988,11.827,9.114c0.897,0.204,1.796,0.295,2.696,0.295
					c3.87,0,7.748-1.686,11.522-3.325c3.389-1.473,6.894-2.996,9.917-2.996s6.528,1.523,9.917,2.996
					c3.776,1.64,7.655,3.324,11.526,3.324c0.898,0,1.797-0.091,2.693-0.294c4.952-1.126,8.446-5.187,11.826-9.113
					c2.448-2.845,4.759-5.532,7.322-6.768c2.643-1.275,6.24-1.418,10.048-1.569c5.12-0.204,10.415-0.414,14.299-3.515
					c3.905-3.118,5.286-8.249,6.621-13.21c0.987-3.667,1.919-7.13,3.734-9.403c1.798-2.251,4.954-3.918,8.295-5.684
					c4.56-2.409,9.275-4.899,11.461-9.431c2.145-4.445,1.173-9.635,0.233-14.654c-0.705-3.765-1.371-7.321-0.712-10.218
					c0.621-2.733,2.71-5.564,4.921-8.562c3.088-4.185,6.281-8.512,6.281-13.642s-3.193-9.457-6.281-13.642
					c-2.211-2.998-4.3-5.829-4.921-8.562c-0.659-2.897,0.007-6.453,0.712-10.218c0.94-5.019,1.912-10.208-0.232-14.654
					c-2.186-4.532-6.901-7.022-11.461-9.431c-3.341-1.765-6.498-3.432-8.295-5.684c-1.815-2.273-2.747-5.736-3.734-9.403
					c-1.335-4.961-2.716-10.092-6.621-13.21c-3.884-3.101-9.178-3.312-14.298-3.515c-3.808-0.151-7.405-0.294-10.049-1.57
					c-2.563-1.236-4.875-3.923-7.322-6.768c-3.379-3.927-6.874-7.988-11.827-9.114c-0.897-0.203-1.795-0.294-2.694-0.294
					c-3.871,0-7.75,1.684-11.525,3.324c-3.389,1.473-6.894,2.996-9.917,2.996s-6.528-1.523-9.917-2.996
					c-3.775-1.64-7.655-3.325-11.524-3.325c-0.899,0-1.799,0.091-2.695,0.295c-4.952,1.126-8.446,5.187-11.826,9.113
					c-2.448,2.845-4.759,5.532-7.322,6.768c-2.643,1.275-6.24,1.418-10.048,1.569c-5.12,0.204-10.415,0.414-14.299,3.515
					c-3.905,3.118-5.286,8.249-6.621,13.21c-0.987,3.667-1.919,7.13-3.734,9.403c-1.798,2.251-4.954,3.918-8.295,5.684
					c-4.56,2.409-9.275,4.899-11.461,9.431c-2.145,4.445-1.173,9.635-0.233,14.654c0.705,3.765,1.371,7.321,0.712,10.218
					C30.115,108.53,28.026,111.361,25.815,114.358z M31.498,95.302c-0.895-4.781-1.821-9.724,0.11-13.726
					c1.972-4.088,6.465-6.461,10.812-8.757c3.483-1.84,6.773-3.578,8.765-6.073c2.01-2.517,2.982-6.127,4.01-9.949
					c1.272-4.728,2.588-9.617,6.109-12.428c3.499-2.794,8.542-2.994,13.423-3.188c3.968-0.158,7.716-0.307,10.64-1.717
					c2.844-1.372,5.254-4.173,7.809-7.142c3.22-3.742,6.551-7.611,11.02-8.628c0.752-0.171,1.547-0.258,2.363-0.258
					c3.559,0,7.304,1.627,10.928,3.202c3.529,1.533,7.178,3.119,10.514,3.119c3.335,0,6.984-1.586,10.515-3.12
					c3.621-1.573,7.366-3.2,10.927-3.2c0.815,0,1.61,0.086,2.361,0.257c4.471,1.017,7.802,4.887,11.024,8.632
					c2.552,2.965,4.962,5.766,7.805,7.138c2.924,1.411,6.673,1.56,10.641,1.718c4.878,0.194,9.923,0.395,13.422,3.188
					c3.52,2.811,4.836,7.7,6.109,12.428c1.029,3.822,2,7.432,4.01,9.95c1.992,2.495,5.281,4.233,8.77,6.076
					c4.344,2.295,8.836,4.668,10.808,8.754c1.931,4.003,1.005,8.946,0.109,13.726c-0.734,3.922-1.428,7.626-0.701,10.826
					c0.69,3.038,2.869,5.992,5.177,9.12c2.944,3.989,5.988,8.114,5.988,12.751c0,4.637-3.044,8.762-5.989,12.753
					c-2.307,3.127-4.485,6.08-5.176,9.118c-0.728,3.2-0.034,6.905,0.701,10.827c0.895,4.781,1.821,9.724-0.11,13.726
					c-1.972,4.088-6.465,6.461-10.812,8.757c-3.483,1.84-6.773,3.578-8.766,6.073c-2.01,2.517-2.982,6.127-4.01,9.949
					c-1.273,4.728-2.588,9.617-6.109,12.428c-3.499,2.794-8.542,2.994-13.423,3.188c-3.968,0.158-7.716,0.307-10.64,1.717
					c-2.844,1.372-5.253,4.172-7.809,7.142c-3.22,3.742-6.551,7.612-11.019,8.628c-0.752,0.17-1.546,0.257-2.361,0.257
					c-3.564,0-7.308-1.627-10.93-3.2c-3.529-1.533-7.178-3.119-10.514-3.119c-3.335,0-6.984,1.586-10.52,3.122
					c-3.62,1.573-7.364,3.199-10.92,3.199c-0.815,0-1.611-0.087-2.364-0.258c-4.471-1.017-7.802-4.887-11.025-8.632
					c-2.552-2.965-4.962-5.766-7.805-7.137c-2.924-1.411-6.673-1.56-10.642-1.718c-4.878-0.194-9.922-0.395-13.421-3.188
					c-3.52-2.811-4.836-7.7-6.109-12.428c-1.029-3.822-2-7.432-4.01-9.95c-1.992-2.495-5.282-4.233-8.77-6.076
					c-4.344-2.295-8.836-4.668-10.807-8.754c-1.931-4.003-1.005-8.946-0.109-13.726c0.735-3.922,1.428-7.626,0.701-10.826
					c-0.69-3.038-2.869-5.991-5.177-9.12c-2.944-3.989-5.988-8.114-5.988-12.751c0-4.637,3.044-8.762,5.989-12.753
					c2.307-3.127,4.485-6.08,5.176-9.118C32.927,102.929,32.233,99.225,31.498,95.302z"/>
				<path class="st7" d="M28.631,116.437c-2.878,3.9-5.597,7.584-5.597,11.563s2.719,7.663,5.6,11.567
					c2.327,3.154,4.733,6.415,5.516,9.86c0.819,3.603,0.055,7.685-0.686,11.638c-0.875,4.669-1.701,9.078-0.056,12.489
					c1.687,3.496,5.698,5.614,9.944,7.857c3.511,1.854,7.142,3.772,9.396,6.594c2.271,2.844,3.342,6.826,4.379,10.678
					c1.243,4.62,2.418,8.983,5.425,11.385c2.986,2.385,7.488,2.564,12.253,2.753c3.998,0.159,8.131,0.323,11.431,1.915
					c3.219,1.553,5.88,4.646,8.457,7.64c3.147,3.657,6.12,7.11,9.946,7.98c0.606,0.138,1.254,0.208,1.927,0.208
					c3.136,0,6.524-1.472,10.122-3.035c3.717-1.615,7.561-3.285,11.312-3.285c3.751,0,7.595,1.67,11.312,3.285
					c3.59,1.561,6.98,3.035,10.123,3.035c0.673,0,1.32-0.07,1.926-0.207c3.827-0.87,6.8-4.324,9.949-7.983
					c2.573-2.991,5.234-6.083,8.454-7.637c3.298-1.591,7.432-1.756,11.43-1.915c4.766-0.189,9.267-0.368,12.254-2.753
					c3.008-2.402,4.182-6.765,5.426-11.385c1.036-3.851,2.107-7.833,4.378-10.677c2.253-2.822,5.884-4.74,9.395-6.594
					c4.247-2.243,8.258-4.361,9.944-7.857c1.645-3.41,0.819-7.82-0.055-12.489c-0.74-3.949-1.505-8.033-0.685-11.638
					c0.783-3.445,3.189-6.706,5.519-9.864c2.878-3.9,5.597-7.584,5.597-11.563c0-3.979-2.719-7.663-5.599-11.567
					c-2.327-3.154-4.733-6.415-5.516-9.86c-0.819-3.603-0.055-7.685,0.685-11.638c0.875-4.669,1.701-9.078,0.056-12.489
					c-1.687-3.496-5.698-5.614-9.944-7.857c-3.511-1.854-7.142-3.772-9.396-6.594c-2.271-2.844-3.342-6.826-4.379-10.678
					c-1.243-4.62-2.418-8.983-5.425-11.385c-2.986-2.385-7.488-2.564-12.253-2.753c-3.998-0.159-8.131-0.323-11.431-1.915
					c-3.219-1.553-5.88-4.646-8.457-7.64c-3.147-3.657-6.12-7.11-9.946-7.98c-0.605-0.138-1.253-0.207-1.925-0.207
					c-3.14,0-6.532,1.474-10.123,3.035c-3.717,1.615-7.561,3.285-11.312,3.285s-7.595-1.67-11.324-3.29
					c-3.586-1.558-6.973-3.03-10.11-3.03c-0.673,0-1.321,0.07-1.927,0.208c-3.827,0.87-6.8,4.324-9.949,7.983
					c-2.573,2.991-5.234,6.083-8.454,7.637c-3.298,1.591-7.431,1.756-11.43,1.915c-4.766,0.189-9.267,0.368-12.254,2.753
					c-3.008,2.402-4.182,6.765-5.426,11.385c-1.036,3.851-2.107,7.833-4.378,10.677c-2.253,2.822-5.884,4.74-9.395,6.594
					c-4.247,2.243-8.258,4.362-9.944,7.857c-1.645,3.41-0.819,7.82,0.055,12.489c0.74,3.95,1.505,8.033,0.686,11.638
					C33.366,110.018,30.961,113.279,28.631,116.437z M34.938,94.658c-0.828-4.42-1.609-8.595-0.179-11.561
					c1.472-3.051,5.271-5.058,9.294-7.183c3.647-1.926,7.418-3.918,9.867-6.984c2.465-3.087,3.579-7.224,4.655-11.224
					c1.178-4.375,2.29-8.508,4.913-10.603c2.602-2.078,6.865-2.247,11.377-2.426c4.151-0.165,8.443-0.335,12.022-2.063
					c3.501-1.689,6.266-4.902,8.939-8.009c2.982-3.465,5.798-6.739,9.144-7.499c0.514-0.117,1.045-0.17,1.594-0.17
					c2.828,0,6.096,1.421,9.524,2.91c3.858,1.676,7.847,3.41,11.91,3.41s8.052-1.733,11.91-3.41c3.429-1.49,6.698-2.911,9.525-2.91
					c0.548,0,1.08,0.053,1.593,0.17c3.346,0.76,6.163,4.034,9.145,7.499c2.674,3.107,5.439,6.321,8.939,8.009
					c3.58,1.727,7.872,1.898,12.023,2.063c4.513,0.179,8.775,0.349,11.377,2.426c2.623,2.095,3.735,6.228,4.913,10.603
					c1.076,4,2.189,8.136,4.655,11.224c2.448,3.066,6.22,5.058,9.867,6.984c4.022,2.125,7.821,4.131,9.293,7.183
					c1.431,2.966,0.649,7.141-0.179,11.561c-0.768,4.1-1.562,8.339-0.674,12.247c0.853,3.752,3.355,7.143,5.774,10.422
					c2.727,3.696,5.304,7.188,5.304,10.673s-2.576,6.977-5.304,10.673c-2.419,3.279-4.921,6.669-5.774,10.422
					c-0.888,3.908-0.094,8.147,0.674,12.247c0.828,4.42,1.609,8.595,0.179,11.561c-1.472,3.051-5.272,5.058-9.294,7.183
					c-3.647,1.926-7.418,3.918-9.867,6.984c-2.465,3.087-3.579,7.224-4.655,11.224c-1.178,4.375-2.29,8.508-4.913,10.603
					c-2.602,2.078-6.865,2.247-11.377,2.426c-4.151,0.165-8.443,0.335-12.022,2.063c-3.5,1.689-6.266,4.902-8.939,8.009
					c-2.982,3.465-5.798,6.739-9.144,7.499c-0.513,0.117-1.045,0.17-1.593,0.17c-2.827,0-6.097-1.42-9.525-2.91
					c-3.858-1.676-7.847-3.41-11.91-3.41s-8.052,1.733-11.91,3.41c-3.428,1.489-6.696,2.911-9.523,2.911
					c-0.548,0-1.081-0.054-1.594-0.171c-3.346-0.76-6.163-4.034-9.145-7.499c-2.674-3.107-5.439-6.321-8.939-8.009
					c-3.58-1.727-7.872-1.898-12.023-2.063c-4.513-0.179-8.775-0.349-11.377-2.426c-2.623-2.095-3.735-6.228-4.913-10.603
					c-1.076-4-2.189-8.136-4.655-11.224c-2.448-3.066-6.22-5.058-9.867-6.984c-4.023-2.125-7.821-4.131-9.294-7.183
					c-1.431-2.966-0.649-7.141,0.179-11.561c0.768-4.1,1.562-8.339,0.674-12.247c-0.853-3.752-3.355-7.143-5.774-10.422
					c-2.728-3.696-5.304-7.188-5.304-10.673s2.576-6.977,5.304-10.673c2.419-3.279,4.921-6.669,5.774-10.422
					C36.5,102.998,35.707,98.758,34.938,94.658z"/>
			</g>
		</g>
		<g>
			<path class="st8" d="M164.885,131.347c1.381,0,2.5-1.119,2.5-2.5s-1.119-2.5-2.5-2.5h-23.216c-1.381,0-2.5,1.119-2.5,2.5
				s1.119,2.5,2.5,2.5H164.885z"/>
		</g>
		<g>
			<path class="st8" d="M164.885,148.071c1.381,0,2.5-1.119,2.5-2.5s-1.119-2.5-2.5-2.5h-23.216c-1.381,0-2.5,1.119-2.5,2.5
				s1.119,2.5,2.5,2.5H164.885z"/>
		</g>
		<g>
			<path class="st8" d="M152.481,100.005c1.35,0.316,2.689-0.525,3-1.87c3.46-14.904-4.458-27.942-4.796-28.49
				c-0.119-0.192-0.263-0.367-0.429-0.52c-2.521-2.334-6.076-3.026-9.274-1.807c-3.145,1.199-5.297,4.027-5.618,7.381
				c-0.676,7.073-2.669,16.707-8.324,22.437c-8.396,8.507-27.556,25.109-27.748,25.275c-1.044,0.904-1.158,2.482-0.254,3.526
				c0.495,0.571,1.191,0.864,1.891,0.864c0.58,0,1.163-0.201,1.635-0.61c0.792-0.686,19.501-16.896,28.034-25.544
				c6.688-6.776,8.99-17.592,9.743-25.473c0.141-1.47,1.046-2.66,2.422-3.185c1.329-0.507,2.744-0.284,3.847,0.59
				c1.092,1.926,6.729,12.668,4,24.423C150.299,98.35,151.137,99.693,152.481,100.005z"/>
		</g>
		<g>
			<path class="st8" d="M100.929,169.633c1.381,0,2.5-1.119,2.5-2.5v-50.752c0-1.381-1.119-2.5-2.5-2.5H75.22
				c-1.381,0-2.5,1.119-2.5,2.5v50.752c0,1.381,1.119,2.5,2.5,2.5H100.929z M77.72,118.881h20.708v45.752H77.72V118.881z"/>
		</g>
		<g>
			<path class="st8" d="M174.965,164.633h-33.047l-26.516-5.32c-1.356-0.269-2.671,0.606-2.943,1.959
				c-0.271,1.354,0.605,2.671,1.959,2.943l26.759,5.369c0.162,0.032,0.327,0.049,0.492,0.049h33.296c4.585,0,8.315-3.73,8.315-8.315
				v-43.836c0-4.585-3.73-8.315-8.315-8.315h-27.481c-4.585,0-8.315,3.73-8.315,8.315v35.259c0,1.381,1.119,2.5,2.5,2.5
				s2.5-1.119,2.5-2.5v-35.259c0-1.828,1.487-3.315,3.315-3.315h27.481c1.828,0,3.315,1.487,3.315,3.315v43.836
				C178.28,163.146,176.792,164.633,174.965,164.633z"/>
		</g>
		<g>
			<g>
				<path class="st9" d="M98.429,117.381H77.72c-0.828,0-1.5,0.672-1.5,1.5v45.752c0,0.828,0.672,1.5,1.5,1.5h20.708
					c0.828,0,1.5-0.672,1.5-1.5v-45.752C99.929,118.053,99.257,117.381,98.429,117.381z M98.429,164.633H77.72v-45.752h20.708
					V164.633z"/>
				<path class="st9" d="M100.929,113.881H75.22c-1.381,0-2.5,1.119-2.5,2.5v50.752c0,1.381,1.119,2.5,2.5,2.5h25.708
					c1.381,0,2.5-1.119,2.5-2.5v-41.691c3.874-3.37,19.562-17.083,27.17-24.794c6.688-6.776,8.99-17.592,9.743-25.473
					c0.141-1.47,1.046-2.66,2.422-3.185c0.471-0.18,0.952-0.268,1.426-0.268c0.866,0,1.708,0.293,2.42,0.858
					c1.092,1.926,6.729,12.668,4,24.423c-0.313,1.345,0.525,2.688,1.87,3c0.192,0.045,0.384,0.067,0.573,0.067
					c1.138,0,2.161-0.783,2.428-1.936c3.46-14.904-4.458-27.942-4.796-28.49c-0.119-0.192-0.263-0.367-0.429-0.52
					c-1.698-1.572-3.865-2.399-6.076-2.399c-1.072,0-2.154,0.194-3.199,0.593c-3.145,1.199-5.297,4.027-5.618,7.381
					c-0.676,7.073-2.669,16.707-8.324,22.437c-5.992,6.071-17.462,16.262-23.612,21.662v-2.418
					C103.429,115,102.31,113.881,100.929,113.881z M104.419,119.926c6.271-5.507,17.687-15.654,23.69-21.736
					c5.965-6.044,8.05-16.033,8.75-23.348c0.266-2.782,2.052-5.128,4.659-6.122c0.86-0.328,1.757-0.494,2.664-0.494
					c1.868,0,3.663,0.71,5.056,2c0.067,0.062,0.125,0.132,0.172,0.208c0.325,0.527,7.93,13.065,4.611,27.363
					c-0.106,0.456-0.503,0.775-0.967,0.775c-0.077,0-0.154-0.009-0.234-0.028c-0.26-0.06-0.481-0.218-0.622-0.445
					c-0.141-0.227-0.186-0.495-0.125-0.755c2.848-12.268-2.963-23.396-4.157-25.502c-0.095-0.168-0.222-0.316-0.373-0.436
					c-0.976-0.774-2.135-1.183-3.352-1.183c-0.665,0-1.324,0.123-1.961,0.366c-1.921,0.733-3.185,2.394-3.381,4.444
					c-0.73,7.638-2.94,18.099-9.318,24.562c-7.474,7.574-22.622,20.833-27.087,24.716c-0.328,0.285-0.516,0.698-0.516,1.132v41.691
					c0,0.551-0.449,1-1,1H75.22c-0.551,0-1-0.449-1-1v-50.752c0-0.551,0.449-1,1-1h25.708c0.551,0,1,0.449,1,1v2.418
					c0,0.589,0.345,1.124,0.881,1.367c0.198,0.09,0.409,0.133,0.618,0.133C103.786,120.299,104.139,120.171,104.419,119.926z"/>
			</g>
			<g>
				<path class="st9" d="M174.965,164.633h-33.047l-26.516-5.32c-0.165-0.033-0.33-0.049-0.492-0.049
					c-1.169,0-2.212,0.82-2.451,2.008c-0.271,1.354,0.605,2.671,1.959,2.943l26.759,5.369c0.162,0.032,0.327,0.049,0.492,0.049
					h33.296c4.585,0,8.315-3.73,8.315-8.315v-43.836c0-4.585-3.73-8.315-8.315-8.315h-27.481c-4.585,0-8.315,3.73-8.315,8.315
					v35.259c0,1.381,1.119,2.5,2.5,2.5s2.5-1.119,2.5-2.5v-4.67h20.716c1.381,0,2.5-1.119,2.5-2.5s-1.119-2.5-2.5-2.5h-20.716
					v-11.724h20.716c1.381,0,2.5-1.119,2.5-2.5s-1.119-2.5-2.5-2.5h-20.716v-8.865c0-1.828,1.487-3.315,3.315-3.315h27.481
					c1.828,0,3.315,1.487,3.315,3.315v43.836C178.28,163.146,176.792,164.633,174.965,164.633z M174.965,112.667h-27.481
					c-2.655,0-4.815,2.16-4.815,4.815v8.865c0,0.828,0.672,1.5,1.5,1.5h20.716c0.551,0,1,0.449,1,1s-0.449,1-1,1h-20.716
					c-0.828,0-1.5,0.672-1.5,1.5v11.724c0,0.828,0.672,1.5,1.5,1.5h20.716c0.551,0,1,0.449,1,1s-0.449,1-1,1h-20.716
					c-0.828,0-1.5,0.672-1.5,1.5v4.67c0,0.551-0.449,1-1,1s-1-0.449-1-1v-35.259c0-3.758,3.057-6.815,6.815-6.815h27.481
					c3.758,0,6.815,3.057,6.815,6.815v43.836c0,3.758-3.057,6.815-6.815,6.815h-33.296c-0.065,0-0.132-0.007-0.197-0.02
					l-26.759-5.369c-0.262-0.052-0.487-0.204-0.635-0.426c-0.148-0.222-0.201-0.489-0.148-0.751c0.093-0.465,0.505-0.803,0.98-0.803
					c0.066,0,0.134,0.007,0.197,0.019l26.516,5.32c0.097,0.02,0.196,0.029,0.295,0.029h33.047c2.655,0,4.815-2.16,4.815-4.815
					v-43.836C179.78,114.827,177.62,112.667,174.965,112.667z"/>
			</g>
		</g>
	</g>
</g>
</svg>
