<svg width="893" height="348" xmlns="http://www.w3.org/2000/svg" xmlns:xlink="http://www.w3.org/1999/xlink" overflow="hidden"><defs><clipPath id="clip0"><rect x="1540" y="1810" width="893" height="348"/></clipPath><clipPath id="clip1"><rect x="1543" y="1812" width="344" height="344"/></clipPath><clipPath id="clip2"><rect x="1543" y="1812" width="344" height="344"/></clipPath><clipPath id="clip3"><rect x="1543" y="1812" width="344" height="344"/></clipPath><clipPath id="clip4"><rect x="2088" y="1812" width="346" height="344"/></clipPath><clipPath id="clip5"><rect x="2088" y="1812" width="346" height="344"/></clipPath><clipPath id="clip6"><rect x="2088" y="1812" width="346" height="344"/></clipPath></defs><g clip-path="url(#clip0)" transform="translate(-1540 -1810)"><g clip-path="url(#clip1)"><g clip-path="url(#clip2)"><g clip-path="url(#clip3)"><path d="M1732.2 1971.55C1733.51 1971.55 1734.83 1971.05 1735.84 1970.05L1787.09 1918.78C1789.1 1916.77 1789.1 1913.51 1787.09 1911.5 1785.08 1909.49 1781.83 1909.49 1779.82 1911.5L1732.2 1959.13 1710.19 1937.14C1708.18 1935.13 1704.92 1935.13 1702.91 1937.14 1700.9 1939.15 1700.9 1942.41 1702.91 1944.42L1728.56 1970.05C1729.57 1971.05 1730.88 1971.55 1732.2 1971.55Z" fill="#000000" fill-rule="nonzero" fill-opacity="1"/><path d="M1671.56 2061.92C1651.97 2061.92 1636.04 2077.86 1636.04 2097.45 1636.04 2117.03 1651.97 2132.97 1671.56 2132.97 1691.15 2132.97 1707.09 2117.03 1707.09 2097.45 1707.09 2077.86 1691.15 2061.92 1671.56 2061.92ZM1671.56 2122.68C1657.65 2122.68 1646.33 2111.36 1646.33 2097.45 1646.33 2083.53 1657.65 2072.21 1671.56 2072.21 1685.48 2072.21 1696.8 2083.53 1696.8 2097.45 1696.8 2111.36 1685.48 2122.68 1671.56 2122.68Z" fill="#000000" fill-rule="nonzero" fill-opacity="1"/><path d="M1817.27 2061.92C1797.68 2061.92 1781.75 2077.86 1781.75 2097.45 1781.75 2117.03 1797.68 2132.97 1817.27 2132.97 1836.86 2132.97 1852.8 2117.03 1852.8 2097.45 1852.8 2077.86 1836.86 2061.92 1817.27 2061.92ZM1817.27 2122.68C1803.36 2122.68 1792.04 2111.36 1792.04 2097.45 1792.04 2083.53 1803.36 2072.21 1817.27 2072.21 1831.19 2072.21 1842.51 2083.53 1842.51 2097.45 1842.51 2111.36 1831.19 2122.68 1817.27 2122.68Z" fill="#000000" fill-rule="nonzero" fill-opacity="1"/><path d="M1882.65 1867.2C1881.68 1865.83 1880.11 1864.45 1878.44 1864.45L1636.78 1864.45C1633.94 1864.45 1631.64 1866.75 1631.64 1869.59 1631.64 1872.44 1633.94 1874.74 1636.78 1874.74L1871.13 1874.74 1825.1 2005.08 1644.91 2005.08 1600.66 1869.59C1600.12 1867.57 1595.78 1852.88 1582.18 1844.74 1572.62 1839.02 1560.97 1837.77 1547.57 1841.16 1544.82 1841.86 1543.15 1844.62 1543.85 1847.37 1544.55 1850.13 1547.34 1851.78 1550.1 1851.08 1563.9 1847.58 1574.84 1849.92 1582.65 1858.03 1588.71 1864.32 1590.72 1871.93 1590.73 1871.99 1590.76 1872.11 1590.8 1872.22 1590.84 1872.34L1634.63 2006.11C1634.53 2006.84 1634.56 2007.6 1634.8 2008.34L1647.65 2049.49C1648.32 2051.64 1650.31 2053.1 1652.56 2053.1L1824.26 2053.1C1827.1 2053.1 1829.41 2050.8 1829.41 2047.95 1829.41 2045.11 1827.1 2042.81 1824.26 2042.81L1656.34 2042.81 1647.58 2015.37 1828.72 2015.37C1830.89 2015.37 1832.83 2013.69 1833.56 2011.65L1883.28 1872.35C1883.85 1870.77 1883.61 1868.57 1882.65 1867.2Z" fill="#000000" fill-rule="nonzero" fill-opacity="1"/></g></g></g><g clip-path="url(#clip4)"><g clip-path="url(#clip5)"><g clip-path="url(#clip6)"><path d="M338.147 187.384 302.515 125.845C301.599 124.24 299.52 123.48 297.673 123.48L233.24 123.48 233.24 49.9562C233.24 40.8835 225.777 34.3 215.494 34.3L22.5128 34.3C13.2611 34.3 3.43 39.7866 3.43 49.9562L3.43 251.809C3.43 260.524 12.1624 274.4 22.5128 274.4L51.877 274.4C53.2991 295.7 71.0336 312.606 92.6872 312.606 114.34 312.606 132.075 295.7 133.497 274.4L215.494 274.4C215.84 274.4 216.194 274.338 216.542 274.31 217.892 295.68 235.659 312.666 257.364 312.666 279.919 312.666 298.268 294.333 298.306 271.786 298.938 271.802 299.629 271.869 300.241 271.869 331.097 271.869 338.322 251.924 338.599 251.02 338.748 250.532 339.57 250.025 339.57 249.516L339.57 189.935C339.57 189.04 338.59 188.161 338.147 187.384ZM92.6872 302.316C75.7817 302.316 62.0281 288.562 62.0281 271.657 62.0281 254.75 75.7817 240.996 92.6872 240.996 109.593 240.996 123.346 254.75 123.346 271.657 123.346 288.562 109.593 302.316 92.6872 302.316ZM132.909 264.11C129.354 245.128 112.686 230.706 92.6872 230.706 72.6882 230.706 56.0205 245.128 52.4649 264.11L22.5128 264.11C19.4848 264.11 13.72 256.756 13.72 251.809L13.72 49.9562C13.72 46.2951 18.9672 44.59 22.5128 44.59L215.494 44.59C216.257 44.59 222.95 44.7406 222.95 49.9562L222.95 246.96C222.95 247.664 223.092 248.335 223.349 248.946 220.406 253.326 218.291 258.303 217.217 263.655 216.584 263.929 215.986 264.11 215.494 264.11L132.909 264.11ZM257.364 302.376C240.457 302.376 226.702 288.623 226.702 271.717 226.702 254.81 240.457 241.056 257.364 241.056 274.268 241.056 288.02 254.81 288.02 271.717 288.02 288.623 274.268 302.376 257.364 302.376ZM329.28 248.556C325.85 251.378 320.73 262.596 297.703 261.46 293.134 243.837 276.768 230.766 257.737 230.766 248.713 230.766 240.016 233.736 233.24 238.7L233.24 133.77 294.685 133.77 329.28 191.3 329.28 248.556Z" fill="#000000" fill-rule="nonzero" fill-opacity="1" transform="matrix(1.00292 0 0 1 2089 1813)"/><path d="M164.235 115.101 104.122 175.222 75.8654 146.983C73.8555 144.976 70.598 144.973 68.5883 146.986 66.5801 148.996 66.5801 152.253 68.5918 154.261L100.488 186.136C101.492 187.139 102.808 187.642 104.124 187.642 105.441 187.642 106.759 187.139 107.762 186.134L171.51 122.376C173.52 120.367 173.52 117.109 171.51 115.101 169.5 113.091 166.241 113.091 164.235 115.101Z" fill="#000000" fill-rule="nonzero" fill-opacity="1" transform="matrix(1.00292 0 0 1 2089 1813)"/></g></g></g><path d="M1927 1886 1988 1886 2049 1984.5 1988 2083 1927 2083 1988 1984.5Z" fill="#A5A5A5" fill-rule="evenodd" fill-opacity="1"/></g></svg>