<svg width="702" height="518" xmlns="http://www.w3.org/2000/svg" xmlns:xlink="http://www.w3.org/1999/xlink" overflow="hidden"><defs><clipPath id="clip0"><rect x="2937" y="1906" width="702" height="518"/></clipPath><clipPath id="clip1"><rect x="3294" y="2079" width="344" height="344"/></clipPath><clipPath id="clip2"><rect x="3294" y="2079" width="344" height="344"/></clipPath><clipPath id="clip3"><rect x="3294" y="2079" width="344" height="344"/></clipPath><clipPath id="clip4"><rect x="2940" y="1910" width="344" height="345"/></clipPath><clipPath id="clip5"><rect x="2940" y="1910" width="344" height="345"/></clipPath><clipPath id="clip6"><rect x="2940" y="1910" width="344" height="345"/></clipPath></defs><g clip-path="url(#clip0)" transform="translate(-2937 -1906)"><g clip-path="url(#clip1)"><g clip-path="url(#clip2)"><g clip-path="url(#clip3)"><path d="M283.062 225.633 10.0838 225.633C7.24173 225.633 4.93882 223.329 4.93882 220.488L4.93882 73.5574C4.93882 70.717 7.24173 68.4124 10.0838 68.4124L283.062 68.4124C285.904 68.4124 288.207 70.717 288.207 73.5574L288.207 220.488C288.207 223.329 285.904 225.633 283.062 225.633ZM15.2288 215.343 277.917 215.343 277.917 78.7024 15.2288 78.7024 15.2288 215.343Z" fill="#000000" fill-rule="nonzero" fill-opacity="1" transform="matrix(1.00291 0 0 1 3294 2079)"/><path d="M307.812 249.542 34.8344 249.542C31.9919 249.542 29.6894 247.238 29.6894 244.397 29.6894 241.557 31.9919 239.252 34.8344 239.252L302.667 239.252 302.667 97.4635C302.667 94.6231 304.97 92.3185 307.812 92.3185 310.654 92.3185 312.957 94.6231 312.957 97.4635L312.957 244.397C312.957 247.238 310.654 249.542 307.812 249.542Z" fill="#000000" fill-rule="nonzero" fill-opacity="1" transform="matrix(1.00291 0 0 1 3294 2079)"/><path d="M333.698 278.966 60.7216 278.966C57.8795 278.966 55.5766 276.661 55.5766 273.821 55.5766 270.98 57.8795 268.676 60.7216 268.676L328.553 268.676 328.553 126.887C328.553 124.046 330.856 121.742 333.698 121.742 336.54 121.742 338.843 124.046 338.843 126.887L338.843 273.821C338.843 276.661 336.54 278.966 333.698 278.966Z" fill="#000000" fill-rule="nonzero" fill-opacity="1" transform="matrix(1.00291 0 0 1 3294 2079)"/><path d="M146.572 194.502C120.392 194.502 99.093 173.202 99.093 147.021 99.093 120.841 120.392 99.5438 146.572 99.5438 172.753 99.5438 194.051 120.841 194.051 147.021 194.051 173.202 172.753 194.502 146.572 194.502ZM146.572 109.834C126.066 109.834 109.383 126.515 109.383 147.021 109.383 167.527 126.066 184.212 146.572 184.212 167.078 184.212 183.761 167.527 183.761 147.021 183.761 126.515 167.078 109.834 146.572 109.834Z" fill="#000000" fill-rule="nonzero" fill-opacity="1" transform="matrix(1.00291 0 0 1 3294 2079)"/><path d="M267.979 121.768C267.76 121.768 267.538 121.755 267.316 121.725 242.723 118.563 232.019 98.3481 229.797 88.1013 229.194 85.3247 230.957 82.5845 233.734 81.9818 236.503 81.3788 239.241 83.134 239.849 85.904 240.08 86.919 245.26 108.514 268.629 111.522 271.447 111.884 273.437 114.463 273.075 117.28 272.74 119.876 270.528 121.768 267.979 121.768Z" fill="#000000" fill-rule="nonzero" fill-opacity="1" transform="matrix(1.00291 0 0 1 3294 2079)"/><path d="M22.6668 121.768C20.1176 121.768 17.9053 119.876 17.5705 117.28 17.2086 114.463 19.1984 111.884 22.0168 111.522 45.63 108.481 50.7448 86.1421 50.7935 85.9174 51.3965 83.1408 54.1432 81.3823 56.9133 81.9818 59.6899 82.5845 61.4519 85.3247 60.8489 88.1013 58.6248 98.3481 47.9212 118.563 23.3301 121.725 23.1072 121.755 22.8863 121.768 22.6668 121.768Z" fill="#000000" fill-rule="nonzero" fill-opacity="1" transform="matrix(1.00291 0 0 1 3294 2079)"/><path d="M234.829 210.165C234.468 210.165 234.101 210.128 233.734 210.047 230.957 209.444 229.194 206.705 229.797 203.928 232.019 193.681 242.723 173.466 267.316 170.304 270.121 169.933 272.712 171.929 273.075 174.749 273.437 177.566 271.447 180.145 268.629 180.507 245.014 183.549 239.901 205.884 239.852 206.111 239.33 208.52 237.198 210.165 234.829 210.165Z" fill="#000000" fill-rule="nonzero" fill-opacity="1" transform="matrix(1.00291 0 0 1 3294 2079)"/><path d="M55.816 210.165C53.4514 210.165 51.3244 208.527 50.7969 206.125 50.5674 205.117 45.3854 183.515 22.0168 180.507 19.1984 180.145 17.2086 177.566 17.5705 174.749 17.9337 171.929 20.5148 169.933 23.3301 170.304 47.9212 173.466 58.6248 193.681 60.8489 203.928 61.4519 206.705 59.6899 209.444 56.9133 210.047 56.5449 210.128 56.1779 210.165 55.816 210.165Z" fill="#000000" fill-rule="nonzero" fill-opacity="1" transform="matrix(1.00291 0 0 1 3294 2079)"/></g></g></g><g clip-path="url(#clip4)"><g clip-path="url(#clip5)"><g clip-path="url(#clip6)"><path d="M292.4 235.341 292.4 224.114C292.4 224.582 295.732 225.459 297.782 226.687 298.366 227.038 298.628 227.213 299.216 227.213 301.027 227.213 302.327 225.81 302.327 223.998 302.327 222.594 301.954 221.717 301.02 221.191 298.326 219.495 295.84 218.384 292.4 217.974L292.4 216.688C292.4 215.285 290.391 214.174 288.99 214.174 287.586 214.174 285.52 215.285 285.52 216.688L285.52 217.916C278.64 218.5 273.124 222.827 273.124 229.084 273.124 235.692 278.64 238.909 285.52 241.131L285.52 252.65C282.08 252.065 280.101 250.72 277.353 248.731 276.829 248.323 276.369 248.088 275.67 248.088 273.856 248.088 272.576 249.492 272.576 251.305 272.576 252.532 272.848 253.468 273.843 254.111 277.407 256.626 282.08 258.205 285.52 258.672L285.52 262.298C285.52 263.701 287.586 264.813 288.99 264.813 290.391 264.813 292.4 263.701 292.4 262.298L292.4 258.789C299.28 258.087 304.974 253.819 304.974 247.387 304.974 241.131 299.28 237.563 292.4 235.341ZM285.52 234.113C282.08 232.652 279.906 231.132 279.906 228.676 279.906 226.102 282.08 224.114 285.52 223.763L285.52 234.113ZM292.4 252.884 292.4 242.241C295.84 243.645 298.191 245.224 298.191 247.796 298.191 250.602 295.84 252.474 292.4 252.884Z" fill="#000000" fill-rule="nonzero" fill-opacity="1" transform="matrix(1 0 0 1 2940 1911)"/><path d="M123.84 192.64 30.96 192.64C28.1112 192.64 25.8 194.949 25.8 197.8 25.8 200.65 28.1112 202.96 30.96 202.96L123.84 202.96C126.688 202.96 129 200.65 129 197.8 129 194.949 126.688 192.64 123.84 192.64Z" fill="#000000" fill-rule="nonzero" fill-opacity="1" transform="matrix(1 0 0 1 2940 1911)"/><path d="M89.4399 209.84 30.96 209.84C28.1112 209.84 25.8 212.149 25.8 215 25.8 217.85 28.1112 220.16 30.96 220.16L89.4399 220.16C92.2885 220.16 94.5999 217.85 94.5999 215 94.5999 212.149 92.2885 209.84 89.4399 209.84Z" fill="#000000" fill-rule="nonzero" fill-opacity="1" transform="matrix(1 0 0 1 2940 1911)"/><path d="M306.16 187.315 306.16 154.8 306.16 110.08 306.16 86.8245C306.16 75.8746 299.085 68.7999 288.134 68.7999L21.4662 68.7999C10.9147 68.7999 0 75.5423 0 86.8245L0 110.08 0 154.8 0 239.975C0 250.807 10.6323 261.44 21.4662 261.44L238.892 261.44C247.606 279.727 266.22 292.427 287.791 292.427 317.672 292.427 341.984 268.117 341.984 238.235 341.984 214.808 327.015 194.864 306.16 187.315ZM295.84 144.48 10.32 144.48 10.32 120.4 295.84 120.4 295.84 144.48ZM10.32 86.8245C10.32 82.066 16.1046 79.1199 21.4662 79.1199L288.134 79.1199C293.32 79.1199 295.84 81.6394 295.84 86.8245L295.84 110.08 10.32 110.08 10.32 86.8245ZM21.4662 251.12C16.2594 251.12 10.32 245.182 10.32 239.975L10.32 154.8 295.84 154.8 295.84 184.707C293.206 184.312 290.532 184.042 287.791 184.042 257.909 184.042 233.598 208.353 233.598 238.235 233.598 242.681 234.195 246.981 235.21 251.12L21.4662 251.12ZM287.791 282.107C263.6 282.107 243.917 262.426 243.917 238.235 243.917 214.042 263.6 194.362 287.791 194.362 311.982 194.362 331.664 214.042 331.664 238.235 331.664 262.426 311.982 282.107 287.791 282.107Z" fill="#000000" fill-rule="nonzero" fill-opacity="1" transform="matrix(1 0 0 1 2940 1911)"/></g></g></g></g></svg>